<?xml version="1.0" encoding="UTF-8"?>
<!DOCTYPE svg PUBLIC "-//W3C//DTD SVG 1.1//EN" "http://www.w3.org/Graphics/SVG/1.1/DTD/svg11.dtd">
<svg xmlns="http://www.w3.org/2000/svg" version="1.1" width="300px" height="50px" style="shape-rendering:geometricPrecision; text-rendering:geometricPrecision; image-rendering:optimizeQuality; fill-rule:evenodd; clip-rule:evenodd" xmlns:xlink="http://www.w3.org/1999/xlink">
<g><path style="opacity:0.776" fill="#fefefe" d="M -0.5,-0.5 C 6.5,-0.5 13.5,-0.5 20.5,-0.5C 23.6359,0.430076 26.4692,2.09674 29,4.5C 28.8764,12.7202 26.3764,13.8869 21.5,8C 14.2542,6.60946 6.92087,6.10946 -0.5,6.5C -0.5,4.16667 -0.5,1.83333 -0.5,-0.5 Z"/></g>
<g><path style="opacity:0.659" fill="#abfaa7" d="M 39.5,1.5 C 39.0269,2.90632 38.0269,3.57298 36.5,3.5C 36.9731,2.09368 37.9731,1.42702 39.5,1.5 Z"/></g>
<g><path style="opacity:0.667" fill="#a2f99d" d="M 36.5,3.5 C 35.7377,5.26242 34.4044,6.26242 32.5,6.5C 33.2623,4.73758 34.5956,3.73758 36.5,3.5 Z"/></g>
<g><path style="opacity:1" fill="#57f44e" d="M 43.5,-0.5 C 47.5,-0.5 51.5,-0.5 55.5,-0.5C 66.9777,3.82099 72.811,12.1543 73,24.5C 70.5991,25.6023 68.0991,25.769 65.5,25C 65.204,15.8824 60.8707,9.71573 52.5,6.5C 51.3784,5.84417 50.0451,5.51084 48.5,5.5C 46.1175,5.36103 44.1175,6.02769 42.5,7.5C 40.563,8.93142 38.7297,10.5981 37,12.5C 35.0122,17.4569 33.1788,22.4569 31.5,27.5C 29.7041,28.7927 28.0375,30.2927 26.5,32C 24.9751,33.0086 23.3084,33.5086 21.5,33.5C 16.5,33.5 11.5,33.5 6.5,33.5C 6.5,37.5 6.5,41.5 6.5,45.5C 4.16667,45.5 1.83333,45.5 -0.5,45.5C -0.5,39.5 -0.5,33.5 -0.5,27.5C 7.27917,27.9321 14.9458,27.4321 22.5,26C 24.799,20.2476 27.4657,14.7476 30.5,9.5C 31.9063,9.02694 32.573,8.02694 32.5,6.5C 34.4044,6.26242 35.7377,5.26242 36.5,3.5C 38.0269,3.57298 39.0269,2.90632 39.5,1.5C 40.8333,0.833333 42.1667,0.166667 43.5,-0.5 Z"/></g>
<g><path style="opacity:0.18" fill="#cffccf" d="M 52.5,6.5 C 49.1194,6.45954 45.7861,6.79287 42.5,7.5C 44.1175,6.02769 46.1175,5.36103 48.5,5.5C 50.0451,5.51084 51.3784,5.84417 52.5,6.5 Z"/></g>
<g><path style="opacity:0.741" fill="#a5fa9e" d="M 32.5,6.5 C 32.573,8.02694 31.9063,9.02694 30.5,9.5C 30.427,7.97306 31.0937,6.97306 32.5,6.5 Z"/></g>
<g><path style="opacity:0.626" fill="#fefefe" d="M 218.5,8.5 C 224.532,10.5435 224.865,13.2102 219.5,16.5C 214.691,14.2575 214.357,11.5908 218.5,8.5 Z"/></g>
<g><path style="opacity:0.751" fill="#fefefe" d="M 247.5,9.5 C 249.5,9.5 251.5,9.5 253.5,9.5C 253.334,14.5111 253.501,19.5111 254,24.5C 255.833,22.6667 257.667,20.8333 259.5,19C 261.891,18.7132 264.224,18.2132 266.5,17.5C 266.833,17.8333 267.167,18.1667 267.5,18.5C 264.122,21.8761 261.122,25.5428 258.5,29.5C 261.687,32.8528 264.687,36.3528 267.5,40C 264.773,40.8184 262.106,40.6517 259.5,39.5C 257.851,37.3501 256.018,35.3501 254,33.5C 253.503,35.8098 253.337,38.1432 253.5,40.5C 251.5,40.5 249.5,40.5 247.5,40.5C 247.5,30.1667 247.5,19.8333 247.5,9.5 Z"/></g>
<g><path style="opacity:0.759" fill="#fefefe" d="M 84.5,10.5 C 89.1785,10.3342 93.8452,10.5008 98.5,11C 103.351,12.8691 106.184,16.3691 107,21.5C 111.15,17.2033 115.816,16.5366 121,19.5C 125.401,18.5333 129.901,18.2 134.5,18.5C 135.693,22.9106 137.193,27.2439 139,31.5C 141.386,27.3957 143.219,23.0623 144.5,18.5C 149.116,19.5573 152.449,18.0573 154.5,14C 164.775,7.90578 173.275,9.73911 180,19.5C 182.139,18.2309 184.305,18.2309 186.5,19.5C 187.716,23.5997 189.216,27.5997 191,31.5C 195.773,14.2097 200.773,14.2097 206,31.5C 207.308,27.2405 208.808,23.0738 210.5,19C 214.361,17.6073 218.361,17.4406 222.5,18.5C 222.5,25.8333 222.5,33.1667 222.5,40.5C 220.5,40.5 218.5,40.5 216.5,40.5C 216.666,34.1579 216.5,27.8246 216,21.5C 213.247,27.6637 211.08,33.997 209.5,40.5C 207.167,40.5 204.833,40.5 202.5,40.5C 201.702,35.9396 200.202,31.6063 198,27.5C 196.798,31.6052 195.298,35.6052 193.5,39.5C 191.579,40.641 189.579,40.8077 187.5,40C 185.675,35.1945 183.841,30.3612 182,25.5C 180.755,30.4889 178.588,34.9889 175.5,39C 176.484,40.6565 177.484,42.3232 178.5,44C 174.441,45.1056 171.275,43.9389 169,40.5C 157.107,41.958 150.441,36.6247 149,24.5C 145.537,32.4196 142.37,40.4196 139.5,48.5C 137.076,48.8076 134.743,48.4742 132.5,47.5C 133.923,45.1568 134.923,42.6568 135.5,40C 133.593,33.2785 131.093,26.7785 128,20.5C 127.5,27.1583 127.334,33.825 127.5,40.5C 125.08,40.7076 122.747,40.3742 120.5,39.5C 113.779,42.7601 108.613,41.0934 105,34.5C 103.914,31.7724 103.58,29.1057 104,26.5C 100.702,30.1646 96.5355,31.4979 91.5,30.5C 91.5,33.8333 91.5,37.1667 91.5,40.5C 89.1667,40.5 86.8333,40.5 84.5,40.5C 84.5,30.5 84.5,20.5 84.5,10.5 Z M 91.5,16.5 C 95.3672,15.7747 98.0339,17.1081 99.5,20.5C 99.4712,22.0293 98.8045,23.196 97.5,24C 95.5273,24.4955 93.5273,24.6621 91.5,24.5C 91.5,21.8333 91.5,19.1667 91.5,16.5 Z M 162.5,16.5 C 171.871,16.0341 175.705,20.3675 174,29.5C 172.89,33.2789 171.39,33.4456 169.5,30C 162.76,27.4859 161.76,29.1526 166.5,35C 158.502,34.6554 155.335,30.4887 157,22.5C 158.021,19.6499 159.854,17.6499 162.5,16.5 Z M 114.5,23.5 C 120.303,23.81 122.47,26.81 121,32.5C 117.667,36.5 114.333,36.5 111,32.5C 109.666,28.3336 110.833,25.3336 114.5,23.5 Z"/></g>
<g><path style="opacity:0.741" fill="#fefefe" d="M 232.5,17.5 C 240.712,16.9139 245.379,20.5805 246.5,28.5C 244.396,28.7989 242.396,28.4656 240.5,27.5C 238.402,23.3922 235.402,22.5588 231.5,25C 227.696,31.8575 229.696,35.1908 237.5,35C 239.473,31.5056 242.473,30.0056 246.5,30.5C 245.834,37.3303 242.001,40.9969 235,41.5C 225.563,39.6362 221.897,33.9695 224,24.5C 225.851,20.8432 228.684,18.5099 232.5,17.5 Z"/></g>
<g><path style="opacity:0.753" fill="#fefefe" d="M 272.5,17.5 C 282.698,16.7002 287.698,21.3668 287.5,31.5C 281.794,31.1712 276.128,31.5046 270.5,32.5C 271.797,34.3998 273.63,35.3998 276,35.5C 278.662,34.51 281.328,33.51 284,32.5C 285.167,32.8333 286.333,33.1667 287.5,33.5C 281.48,42.6978 274.313,43.6978 266,36.5C 261.892,27.9075 264.058,21.5741 272.5,17.5 Z M 273.5,23.5 C 276.346,23.0301 278.679,23.8634 280.5,26C 277.167,26.6667 273.833,26.6667 270.5,26C 271.571,25.1482 272.571,24.3149 273.5,23.5 Z"/></g>
<g><path style="opacity:0.766" fill="#fefefe" d="M 299.5,17.5 C 299.5,19.8333 299.5,22.1667 299.5,24.5C 297.61,24.2965 296.11,24.9632 295,26.5C 294.501,31.1548 294.334,35.8215 294.5,40.5C 292.5,40.5 290.5,40.5 288.5,40.5C 288.5,33.1667 288.5,25.8333 288.5,18.5C 292.482,19.4891 296.149,19.1557 299.5,17.5 Z"/></g>
<g><path style="opacity:0.768" fill="#fefefe" d="M 31.5,27.5 C 32.5,27.5 33.5,27.5 34.5,27.5C 36.5565,34.5539 41.2232,38.8872 48.5,40.5C 49.4742,42.7427 49.8076,45.076 49.5,47.5C 39.5772,46.8735 32.2439,42.2068 27.5,33.5C 29.2776,31.736 30.6109,29.736 31.5,27.5 Z"/></g>
<g><path style="opacity:0.227" fill="#c9fcc8" d="M 65.5,31.5 C 63.7839,31.6287 62.1172,31.962 60.5,32.5C 61.8786,30.4031 63.5453,30.0698 65.5,31.5 Z"/></g>
<g><path style="opacity:0.729" fill="#a0f99b" d="M 60.5,32.5 C 60.0269,33.9063 59.0269,34.573 57.5,34.5C 57.9731,33.0937 58.9731,32.427 60.5,32.5 Z"/></g>
<g><path style="opacity:1" fill="#44f340" d="M 65.5,31.5 C 65.8333,32.1667 66.1667,32.8333 66.5,33.5C 66.7497,35.674 67.7497,37.3406 69.5,38.5C 69.6596,40.153 70.3263,41.4863 71.5,42.5C 71.4431,43.609 71.1098,44.609 70.5,45.5C 68.8546,44.5213 67.5213,43.188 66.5,41.5C 64.7697,42.0256 63.4363,43.0256 62.5,44.5C 63.4565,46.0754 64.1231,47.742 64.5,49.5C 63.1667,49.5 61.8333,49.5 60.5,49.5C 58.2336,45.9663 56.2336,42.2996 54.5,38.5C 54.5569,37.391 54.8902,36.391 55.5,35.5C 55.8417,34.6618 56.5084,34.3284 57.5,34.5C 59.0269,34.573 60.0269,33.9063 60.5,32.5C 62.1172,31.962 63.7839,31.6287 65.5,31.5 Z"/></g>
<g><path style="opacity:0.176" fill="#dcfddb" d="M 55.5,35.5 C 54.8902,36.391 54.5569,37.391 54.5,38.5C 53.1148,37.0527 53.4482,36.0527 55.5,35.5 Z"/></g>
<g><path style="opacity:0.31" fill="#bbfcc0" d="M 66.5,33.5 C 68.2303,34.0256 69.5637,35.0256 70.5,36.5C 69.6618,36.8417 69.3284,37.5084 69.5,38.5C 67.7497,37.3406 66.7497,35.674 66.5,33.5 Z"/></g>
<g><path style="opacity:0.922" fill="#60f55c" d="M 70.5,36.5 C 71.5,36.8333 72.1667,37.5 72.5,38.5C 72.631,39.2389 72.4643,39.9056 72,40.5C 71.2917,39.6195 70.4584,38.9528 69.5,38.5C 69.3284,37.5084 69.6618,36.8417 70.5,36.5 Z"/></g>
<g><path style="opacity:0.31" fill="#bcfbc0" d="M 69.5,38.5 C 70.4584,38.9528 71.2917,39.6195 72,40.5C 72.4643,39.9056 72.631,39.2389 72.5,38.5C 73.0967,38.7352 73.4301,39.2352 73.5,40C 72.9444,41.0111 72.2778,41.8444 71.5,42.5C 70.3263,41.4863 69.6596,40.153 69.5,38.5 Z"/></g>
<g><path style="opacity:0.624" fill="#8af786" d="M 70.5,45.5 C 69.3282,47.539 67.6616,48.8724 65.5,49.5C 65.1667,49.5 64.8333,49.5 64.5,49.5C 64.1231,47.742 63.4565,46.0754 62.5,44.5C 63.4363,43.0256 64.7697,42.0256 66.5,41.5C 67.5213,43.188 68.8546,44.5213 70.5,45.5 Z"/></g>
<g><path style="opacity:0.02" fill="#d4fcd3" d="M 71.5,42.5 C 72.8852,43.9473 72.5518,44.9473 70.5,45.5C 71.1098,44.609 71.4431,43.609 71.5,42.5 Z"/></g>
<g><path style="opacity:0.418" fill="#b1fab2" d="M 21.5,33.5 C 17.03,34.4861 12.3633,34.8195 7.5,34.5C 7.5,38.5 7.5,42.5 7.5,46.5C 4.83333,46.5 2.16667,46.5 -0.5,46.5C -0.5,46.1667 -0.5,45.8333 -0.5,45.5C 1.83333,45.5 4.16667,45.5 6.5,45.5C 6.5,41.5 6.5,37.5 6.5,33.5C 11.5,33.5 16.5,33.5 21.5,33.5 Z"/></g>
</svg>
