<?xml version="1.0" encoding="UTF-8"?>
<!DOCTYPE svg PUBLIC "-//W3C//DTD SVG 1.1//EN" "http://www.w3.org/Graphics/SVG/1.1/DTD/svg11.dtd">
<svg xmlns="http://www.w3.org/2000/svg" version="1.1" width="260px" height="42px" style="shape-rendering:geometricPrecision; text-rendering:geometricPrecision; image-rendering:optimizeQuality; fill-rule:evenodd; clip-rule:evenodd" xmlns:xlink="http://www.w3.org/1999/xlink">
<g><path style="opacity:0.77" fill="#fefffe" d="M -0.5,-0.5 C 5.83333,-0.5 12.1667,-0.5 18.5,-0.5C 20.3545,0.689603 22.1879,2.02294 24,3.5C 24.4828,4.44802 24.6495,5.44802 24.5,6.5C 23.8333,6.5 23.5,6.83333 23.5,7.5C 22.6618,7.84171 22.3284,8.50838 22.5,9.5C 20.2396,8.86112 18.2396,7.69446 16.5,6C 10.8431,5.50058 5.17645,5.33391 -0.5,5.5C -0.5,3.5 -0.5,1.5 -0.5,-0.5 Z"/></g>
<g><path style="opacity:1" fill="#5af552" d="M 34.5,-0.5 C 38.8333,-0.5 43.1667,-0.5 47.5,-0.5C 53.719,2.71962 57.719,7.71962 59.5,14.5C 59.5,16.1667 59.5,17.8333 59.5,19.5C 57.8333,19.5 56.1667,19.5 54.5,19.5C 54.7678,17.901 54.4345,16.5676 53.5,15.5C 51.18,8.84664 46.5133,5.17997 39.5,4.5C 36.9179,4.02539 34.9179,4.69206 33.5,6.5C 29.4967,11.4556 26.83,17.1223 25.5,23.5C 24.8333,23.5 24.5,23.8333 24.5,24.5C 23.8333,24.5 23.5,24.8333 23.5,25.5C 22.8333,25.5 22.5,25.8333 22.5,26.5C 17.02,28.2827 11.3534,28.9494 5.5,28.5C 4.52333,31.2869 4.19,34.2869 4.5,37.5C 2.83333,37.5 1.16667,37.5 -0.5,37.5C -0.5,32.5 -0.5,27.5 -0.5,22.5C 5.50924,22.6662 11.5092,22.4995 17.5,22C 20.5847,18.452 22.2513,14.2854 22.5,9.5C 22.8333,9.5 23.1667,9.5 23.5,9.5C 24.9063,9.02694 25.573,8.02694 25.5,6.5C 27.6652,2.99109 30.6652,0.657752 34.5,-0.5 Z"/></g>
<g><path style="opacity:0.937" fill="#9af990" d="M 39.5,4.5 C 37.6976,5.4582 35.6976,6.12487 33.5,6.5C 34.9179,4.69206 36.9179,4.02539 39.5,4.5 Z"/></g>
<g><path style="opacity:0.605" fill="#fefffe" d="M 181.5,6.5 C 186.289,8.19983 186.622,10.5332 182.5,13.5C 178.99,11.5733 178.656,9.23996 181.5,6.5 Z"/></g>
<g><path style="opacity:0.731" fill="#fefffe" d="M 222.5,16.5 C 221.833,16.5 221.5,16.8333 221.5,17.5C 220.833,17.5 220.5,17.8333 220.5,18.5C 218.37,20.1271 216.37,21.9604 214.5,24C 215.998,26.6637 217.998,28.8304 220.5,30.5C 220.5,31.1667 220.833,31.5 221.5,31.5C 221.5,32.1667 221.833,32.5 222.5,32.5C 222.631,33.2389 222.464,33.9056 222,34.5C 219.931,33.7362 217.764,33.2362 215.5,33C 214.12,31.0748 212.62,29.2415 211,27.5C 210.505,29.4727 210.338,31.4727 210.5,33.5C 208.833,33.5 207.167,33.5 205.5,33.5C 205.662,31.4727 205.495,29.4727 205,27.5C 200.128,35.3413 194.128,36.3413 187,30.5C 183.276,19.5695 187.109,14.4029 198.5,15C 202,15.8333 204.167,18 205,21.5C 205.499,16.8452 205.666,12.1785 205.5,7.5C 207.167,7.5 208.833,7.5 210.5,7.5C 210.334,11.8461 210.501,16.1794 211,20.5C 213.199,17.4475 216.032,15.4475 219.5,14.5C 221.03,14.6399 222.03,15.3065 222.5,16.5 Z M 193.5,19.5 C 196.278,19.0217 198.278,20.0217 199.5,22.5C 201.5,23.1667 203.5,23.8333 205.5,24.5C 201.995,25.1574 198.995,26.6574 196.5,29C 193.287,29.3039 191.287,27.8039 190.5,24.5C 190.757,22.3076 191.757,20.6409 193.5,19.5 Z"/></g>
<g><path style="opacity:0.384" fill="#b9fcb5" d="M 24.5,6.5 C 24.8333,6.5 25.1667,6.5 25.5,6.5C 25.573,8.02694 24.9063,9.02694 23.5,9.5C 23.5,8.83333 23.5,8.16667 23.5,7.5C 24.1667,7.5 24.5,7.16667 24.5,6.5 Z"/></g>
<g><path style="opacity:0.748" fill="#fefffe" d="M 70.5,8.5 C 75.2973,8.12114 79.964,8.62114 84.5,10C 86.7744,12.3443 87.9411,15.1776 88,18.5C 89.8703,15.9816 92.3703,14.6482 95.5,14.5C 100.416,14.6862 105.416,14.8529 110.5,15C 112.523,18.7299 114.356,22.5633 116,26.5C 117.136,22.7568 118.47,19.0901 120,15.5C 122.069,14.7362 124.236,14.2362 126.5,14C 133.833,6.66667 141.167,6.66667 148.5,14C 150.5,14.3333 152.5,14.6667 154.5,15C 156.06,18.3468 157.227,21.8468 158,25.5C 159.716,22.3599 161.049,19.0266 162,15.5C 163.699,14.5939 165.533,14.2606 167.5,14.5C 168.757,18.4413 169.924,22.4413 171,26.5C 172.477,22.5701 173.644,18.5701 174.5,14.5C 177.833,14.5 181.167,14.5 184.5,14.5C 184.5,20.8333 184.5,27.1667 184.5,33.5C 182.833,33.5 181.167,33.5 179.5,33.5C 179.666,28.4889 179.499,23.4889 179,18.5C 177.555,23.5059 175.721,28.3393 173.5,33C 171.741,33.7975 170.074,33.6309 168.5,32.5C 167.048,29.2633 165.881,25.93 165,22.5C 163.326,26.0207 162.16,29.6873 161.5,33.5C 159.396,33.7989 157.396,33.4656 155.5,32.5C 153.722,28.6096 152.222,24.6096 151,20.5C 150.639,25.0547 148.806,28.888 145.5,32C 148.383,35.7014 147.383,37.0347 142.5,36C 141.666,33.507 139.999,33.007 137.5,34.5C 128.648,33.4785 124.148,28.4785 124,19.5C 121.442,26.2823 118.609,32.949 115.5,39.5C 113.955,40.4519 112.288,40.7852 110.5,40.5C 111.011,37.9716 111.678,35.4716 112.5,33C 110.866,28.4334 109.032,23.9334 107,19.5C 106.501,24.1548 106.334,28.8215 106.5,33.5C 102.543,32.521 98.8761,32.8543 95.5,34.5C 88.8466,33.3394 85.6799,29.3394 86,22.5C 83.0164,25.1001 79.5164,26.1001 75.5,25.5C 75.5,28.1667 75.5,30.8333 75.5,33.5C 73.8333,33.5 72.1667,33.5 70.5,33.5C 70.5,25.1667 70.5,16.8333 70.5,8.5 Z M 75.5,13.5 C 78.8852,12.7896 81.2186,13.9563 82.5,17C 81.2186,20.0437 78.8852,21.2104 75.5,20.5C 75.5,18.1667 75.5,15.8333 75.5,13.5 Z M 134.5,13.5 C 140.858,12.5092 144.525,15.1758 145.5,21.5C 144.926,23.0589 144.26,24.5589 143.5,26C 141.301,25.2547 138.967,24.4213 136.5,23.5C 135.246,25.2592 135.579,26.7592 137.5,28C 131.898,28.0591 129.398,25.2258 130,19.5C 130.599,16.7458 132.099,14.7458 134.5,13.5 Z M 93.5,19.5 C 99.9889,19.1563 101.989,21.9896 99.5,28C 95.0035,30.4185 92.3368,29.0851 91.5,24C 91.5186,22.167 92.1852,20.667 93.5,19.5 Z"/></g>
<g><path style="opacity:0.731" fill="#fefffe" d="M 222.5,32.5 C 221.833,32.5 221.5,32.1667 221.5,31.5C 220.833,31.5 220.5,31.1667 220.5,30.5C 219.167,26.5 219.167,22.5 220.5,18.5C 221.167,18.5 221.5,18.1667 221.5,17.5C 222.167,17.5 222.5,17.1667 222.5,16.5C 230.305,12.4945 235.805,14.4945 239,22.5C 239.497,19.854 239.664,17.1873 239.5,14.5C 241.766,14.1412 243.599,14.8078 245,16.5C 246.584,15.1387 248.418,14.472 250.5,14.5C 250.5,16.1667 250.5,17.8333 250.5,19.5C 248.007,19.3291 246.174,20.3291 245,22.5C 244.501,26.1516 244.335,29.8183 244.5,33.5C 242.833,33.5 241.167,33.5 239.5,33.5C 239.5,31.1667 239.5,28.8333 239.5,26.5C 234.489,26.3341 229.489,26.5007 224.5,27C 225.893,28.3631 227.559,29.1964 229.5,29.5C 231.623,28.6882 233.79,28.0215 236,27.5C 236.833,27.8333 237.667,28.1667 238.5,28.5C 234.349,34.5305 229.016,35.8638 222.5,32.5 Z M 225.5,21.5 C 228.01,18.9131 230.677,18.9131 233.5,21.5C 231.114,21.6759 228.448,21.6759 225.5,21.5 Z"/></g>
<g><path style="opacity:0.291" fill="#fefffe" d="M 259.5,14.5 C 259.5,16.1667 259.5,17.8333 259.5,19.5C 257.076,19.8076 254.743,19.4742 252.5,18.5C 253.833,17.5 253.833,16.5 252.5,15.5C 254.611,14.1515 256.445,14.4848 258,16.5C 258.278,15.5842 258.778,14.9175 259.5,14.5 Z"/></g>
<g><path style="opacity:0.57" fill="#a6faa5" d="M 59.5,14.5 C 60.4614,16.2646 60.7947,18.2646 60.5,20.5C 58.1667,20.5 55.8333,20.5 53.5,20.5C 53.5,18.8333 53.5,17.1667 53.5,15.5C 54.4345,16.5676 54.7678,17.901 54.5,19.5C 56.1667,19.5 57.8333,19.5 59.5,19.5C 59.5,17.8333 59.5,16.1667 59.5,14.5 Z"/></g>
<g><path style="opacity:0.738" fill="#fefffe" d="M 22.5,26.5 C 23.1667,26.5 23.5,26.1667 23.5,25.5C 24.1667,25.5 24.5,25.1667 24.5,24.5C 25.1667,24.5 25.5,24.1667 25.5,23.5C 26.1499,23.1961 26.8165,22.8627 27.5,22.5C 29.834,29.1703 34.5006,32.837 41.5,33.5C 41.5,35.5 41.5,37.5 41.5,39.5C 32.2002,39.3602 25.8668,35.0268 22.5,26.5 Z"/></g>
<g><path style="opacity:0.999" fill="#4ef448" d="M 55.5,28.5 C 55.84,30.679 56.84,32.5123 58.5,34C 56.193,34.3091 54.0263,35.1424 52,36.5C 51.7003,38.0657 52.2003,39.399 53.5,40.5C 53.5,40.8333 53.5,41.1667 53.5,41.5C 52.1667,41.5 50.8333,41.5 49.5,41.5C 48.5383,38.2432 47.0383,35.2432 45,32.5C 44.3333,31.5 44.3333,30.5 45,29.5C 47.4574,28.0222 49.9574,26.6888 52.5,25.5C 54.1753,25.8684 55.1753,26.8684 55.5,28.5 Z"/></g>
<g><path style="opacity:0.682" fill="#72f774" d="M 5.5,28.5 C 5.5,31.8333 5.5,35.1667 5.5,38.5C 3.5,38.5 1.5,38.5 -0.5,38.5C -0.5,38.1667 -0.5,37.8333 -0.5,37.5C 1.16667,37.5 2.83333,37.5 4.5,37.5C 4.19,34.2869 4.52333,31.2869 5.5,28.5 Z"/></g>
<g><path style="opacity:1" fill="#86f881" d="M 55.5,28.5 C 57.371,28.8588 58.871,29.8588 60,31.5C 59.9536,33.3126 60.1203,34.9793 60.5,36.5C 58.6187,38.7337 56.2853,40.067 53.5,40.5C 52.2003,39.399 51.7003,38.0657 52,36.5C 54.0263,35.1424 56.193,34.3091 58.5,34C 56.84,32.5123 55.84,30.679 55.5,28.5 Z"/></g>
</svg>
