<?xml version="1.0" encoding="UTF-8"?>
<!DOCTYPE svg PUBLIC "-//W3C//DTD SVG 1.1//EN" "http://www.w3.org/Graphics/SVG/1.1/DTD/svg11.dtd">
<svg xmlns="http://www.w3.org/2000/svg" version="1.1" width="500px" height="100px" style="shape-rendering:geometricPrecision; text-rendering:geometricPrecision; image-rendering:optimizeQuality; fill-rule:evenodd; clip-rule:evenodd" xmlns:xlink="http://www.w3.org/1999/xlink">
<g><path style="opacity:0.849" fill="#fefefe" d="M -0.5,1.5 C 11.8863,1.10567 24.2196,1.60567 36.5,3C 41.9381,4.44332 46.2714,7.44332 49.5,12C 47.5209,15.4717 45.1875,18.6383 42.5,21.5C 39.926,17.7583 36.5927,14.9249 32.5,13C 21.505,12.5002 10.505,12.3335 -0.5,12.5C -0.5,8.83333 -0.5,5.16667 -0.5,1.5 Z"/></g>
<g><path style="opacity:1" fill="#4af344" d="M 76.5,1.5 C 93.6991,-0.315738 106.866,6.0176 116,20.5C 117.759,24.0087 118.926,27.6754 119.5,31.5C 119.5,34.8333 119.5,38.1667 119.5,41.5C 116.167,41.5 112.833,41.5 109.5,41.5C 109.795,39.2646 109.461,37.2646 108.5,35.5C 103.068,15.6161 90.4014,8.4494 70.5,14C 64.6268,16.9078 60.4602,21.4078 58,27.5C 53.2063,53.4121 37.7063,63.7455 11.5,58.5C 10.5098,64.6446 10.1765,70.9779 10.5,77.5C 6.83333,77.5 3.16667,77.5 -0.5,77.5C -0.5,67.5 -0.5,57.5 -0.5,47.5C 9.82601,48.0181 20.1593,48.3514 30.5,48.5C 32.698,48.8799 34.3646,48.2132 35.5,46.5C 37.1032,45.4036 38.6032,44.0703 40,42.5C 42.5441,37.452 44.2107,32.1187 45,26.5C 49.5111,14.8188 57.6778,7.15214 69.5,3.5C 72.1522,3.59047 74.4855,2.92381 76.5,1.5 Z"/></g>
<g><path style="opacity:0.878" fill="#8df788" d="M 76.5,1.5 C 74.4855,2.92381 72.1522,3.59047 69.5,3.5C 71.5145,2.07619 73.8478,1.40953 76.5,1.5 Z"/></g>
<g><path style="opacity:0.776" fill="#fefefe" d="M 363.5,16.5 C 367.856,16.1834 370.522,18.1834 371.5,22.5C 370.079,27.0772 367.079,28.5772 362.5,27C 358.777,23.2244 359.111,19.7244 363.5,16.5 Z"/></g>
<g><path style="opacity:0.843" fill="#fefefe" d="M 412.5,17.5 C 415.448,17.2229 418.281,17.5562 421,18.5C 421.333,27.1667 421.667,35.8333 422,44.5C 425.833,40.6667 429.667,36.8333 433.5,33C 437.211,32.1747 440.878,32.3414 444.5,33.5C 439.128,38.8698 434.128,44.5365 429.5,50.5C 434.128,56.4635 439.128,62.1302 444.5,67.5C 440.878,68.6586 437.211,68.8253 433.5,68C 429.298,64.1334 425.465,59.9668 422,55.5C 421.501,59.8206 421.334,64.1539 421.5,68.5C 418.5,68.5 415.5,68.5 412.5,68.5C 412.5,51.5 412.5,34.5 412.5,17.5 Z"/></g>
<g><path style="opacity:0.861" fill="#fefefe" d="M 299.5,33.5 C 299.263,34.791 299.596,35.791 300.5,36.5C 303.202,48.2037 299.869,57.7037 290.5,65C 292.041,67.9156 293.707,70.7489 295.5,73.5C 292.167,74.8333 288.833,74.8333 285.5,73.5C 284.826,71.4835 283.659,69.8168 282,68.5C 258.671,70.6705 248.171,60.0038 250.5,36.5C 251.338,36.1583 251.672,35.4916 251.5,34.5C 260.481,19.3441 273.148,15.5108 289.5,23C 293.74,25.7379 297.074,29.2379 299.5,33.5 Z M 271.5,28.5 C 287.145,28.6388 293.312,36.3054 290,51.5C 287.175,57.869 284.675,57.869 282.5,51.5C 279.167,50.1667 275.833,50.1667 272.5,51.5C 273.789,54.5802 275.455,57.4136 277.5,60C 266.765,60.4363 260.765,55.2696 259.5,44.5C 260.132,36.5473 264.132,31.214 271.5,28.5 Z"/></g>
<g><path style="opacity:0.846" fill="#fefefe" d="M 251.5,34.5 C 250.662,34.8417 250.328,35.5084 250.5,36.5C 243.802,50.901 237.468,65.5677 231.5,80.5C 228.167,81.8333 224.833,81.8333 221.5,80.5C 223.407,76.2728 225.407,72.1062 227.5,68C 222.282,57.0153 217.448,45.8486 213,34.5C 212.5,45.8284 212.333,57.1618 212.5,68.5C 209.5,68.5 206.5,68.5 203.5,68.5C 203.657,67.1266 203.49,65.7932 203,64.5C 195.889,70.5116 188.389,71.0116 180.5,66C 174.849,60.3845 172.349,53.5512 173,45.5C 167.101,51.5215 159.934,53.8549 151.5,52.5C 151.5,57.8333 151.5,63.1667 151.5,68.5C 148.167,68.5 144.833,68.5 141.5,68.5C 141.5,52.5 141.5,36.5 141.5,20.5C 150.276,20.0592 158.942,20.5592 167.5,22C 173.966,26.3626 176.8,32.5293 176,40.5C 183.74,30.3249 192.74,28.9916 203,36.5C 203.49,35.2068 203.657,33.8734 203.5,32.5C 209.726,32.7941 216.059,33.1274 222.5,33.5C 225.667,41.1667 228.833,48.8333 232,56.5C 235.264,48.8737 238.431,41.2071 241.5,33.5C 243.167,33.1667 244.833,32.8333 246.5,32.5C 248.64,32.5561 250.306,33.2227 251.5,34.5 Z M 151.5,28.5 C 155.081,29.2599 158.748,29.7599 162.5,30C 166.115,33.6591 166.448,37.6591 163.5,42C 159.605,43.2662 155.605,43.7662 151.5,43.5C 151.5,38.5 151.5,33.5 151.5,28.5 Z M 189.5,40.5 C 201.537,40.6949 205.37,46.3616 201,57.5C 195.667,61.5 190.333,61.5 185,57.5C 180.767,50.1813 182.267,44.5147 189.5,40.5 Z"/></g>
<g><path style="opacity:0.839" fill="#fefefe" d="M 387.5,31.5 C 400.18,30.6507 407.847,36.3174 410.5,48.5C 407.428,48.8174 404.428,48.4841 401.5,47.5C 398.007,40.5523 392.674,38.7189 385.5,42C 381.286,46.2002 380.452,51.0336 383,56.5C 387.2,60.7144 392.034,61.5478 397.5,59C 399.414,57.5867 400.747,55.7534 401.5,53.5C 404.428,52.5159 407.428,52.1826 410.5,52.5C 408.919,63.4123 402.585,69.079 391.5,69.5C 376.209,67.7291 370.042,59.3958 373,44.5C 375.545,37.4974 380.379,33.1641 387.5,31.5 Z"/></g>
<g><path style="opacity:0.842" fill="#fefefe" d="M 454.5,31.5 C 464.461,30.3111 471.961,33.9778 477,42.5C 478.266,46.3951 478.766,50.3951 478.5,54.5C 468.828,54.3335 459.161,54.5002 449.5,55C 455.009,62.7486 461.342,63.4153 468.5,57C 471.482,56.502 474.482,56.3354 477.5,56.5C 475.683,63.1481 471.35,67.3148 464.5,69C 450.06,71.0571 441.726,64.8905 439.5,50.5C 440.471,40.8744 445.471,34.541 454.5,31.5 Z M 457.5,39.5 C 462.42,39.2476 466.086,41.2476 468.5,45.5C 462.193,46.6639 455.859,46.8306 449.5,46C 451.279,42.6263 453.946,40.4596 457.5,39.5 Z"/></g>
<g><path style="opacity:0.855" fill="#fefefe" d="M 499.5,31.5 C 499.5,34.8333 499.5,38.1667 499.5,41.5C 495.112,40.9433 491.945,42.6099 490,46.5C 489.5,53.8258 489.334,61.1591 489.5,68.5C 486.5,68.5 483.5,68.5 480.5,68.5C 480.5,56.5 480.5,44.5 480.5,32.5C 483.5,32.5 486.5,32.5 489.5,32.5C 489.03,36.9704 490.03,37.4704 492.5,34C 494.743,32.8638 497.076,32.0305 499.5,31.5 Z"/></g>
<g><path style="opacity:0.847" fill="#fefefe" d="M 299.5,33.5 C 302.899,32.1802 306.399,32.1802 310,33.5C 312.283,41.0197 314.95,48.3531 318,55.5C 320.401,48.1294 322.901,40.7961 325.5,33.5C 328.446,32.3452 331.446,32.1786 334.5,33C 337.328,40.8167 340.162,48.65 343,56.5C 345.809,48.5729 348.309,40.5729 350.5,32.5C 354.329,31.931 357.663,32.5977 360.5,34.5C 355.998,45.3214 351.665,56.3214 347.5,67.5C 344.291,68.7874 341.125,68.7874 338,67.5C 335.531,59.7582 332.864,52.0916 330,44.5C 327.184,52.4441 324.684,60.4441 322.5,68.5C 319.102,68.8204 315.768,68.487 312.5,67.5C 308.722,56.9671 304.722,46.6338 300.5,36.5C 300.737,35.209 300.404,34.209 299.5,33.5 Z"/></g>
<g><path style="opacity:0.834" fill="#fefefe" d="M 360.5,34.5 C 363.145,32.7581 366.145,32.0914 369.5,32.5C 369.5,44.5 369.5,56.5 369.5,68.5C 366.5,68.5 363.5,68.5 360.5,68.5C 360.5,57.1667 360.5,45.8333 360.5,34.5 Z"/></g>
<g><path style="opacity:0.65" fill="#7ef77e" d="M 119.5,31.5 C 120.482,34.9619 120.815,38.6286 120.5,42.5C 116.5,42.5 112.5,42.5 108.5,42.5C 108.5,40.1667 108.5,37.8333 108.5,35.5C 109.461,37.2646 109.795,39.2646 109.5,41.5C 112.833,41.5 116.167,41.5 119.5,41.5C 119.5,38.1667 119.5,34.8333 119.5,31.5 Z"/></g>
<g><path style="opacity:0.855" fill="#fefefe" d="M 54.5,46.5 C 57.3285,52.9424 61.3285,58.7758 66.5,64C 71.3608,67.2321 76.6941,68.7321 82.5,68.5C 82.5,72.1667 82.5,75.8333 82.5,79.5C 66.1825,79.1739 54.1825,71.8406 46.5,57.5C 49.1914,53.8151 51.8581,50.1484 54.5,46.5 Z"/></g>
<g><path style="opacity:0.824" fill="#a9f9a3" d="M 35.5,46.5 C 34.3646,48.2132 32.698,48.8799 30.5,48.5C 31.9303,47.4625 33.597,46.7959 35.5,46.5 Z"/></g>
<g><path style="opacity:1" fill="#4bf346" d="M 112.5,60.5 C 112.5,60.8333 112.5,61.1667 112.5,61.5C 112.5,62.1667 112.833,62.5 113.5,62.5C 113.5,63.1667 113.833,63.5 114.5,63.5C 114.328,64.4916 114.662,65.1583 115.5,65.5C 115.5,65.8333 115.5,66.1667 115.5,66.5C 115.5,67.1667 115.833,67.5 116.5,67.5C 116.5,67.8333 116.5,68.1667 116.5,68.5C 116.5,69.1667 116.833,69.5 117.5,69.5C 117.5,70.1667 117.833,70.5 118.5,70.5C 121.601,73.9562 120.935,76.2896 116.5,77.5C 114.97,76.7888 113.637,75.7888 112.5,74.5C 112.66,76.153 113.326,77.4863 114.5,78.5C 114.5,80.5 113.5,81.5 111.5,81.5C 110.041,81.5674 108.708,81.2341 107.5,80.5C 107.443,81.609 107.11,82.609 106.5,83.5C 104.777,84.807 102.943,84.807 101,83.5C 96.9669,76.9623 93.1335,70.2957 89.5,63.5C 94.3073,58.871 99.8073,55.2043 106,52.5C 107.261,52.7591 108.261,53.4258 109,54.5C 109.941,56.7274 111.108,58.7274 112.5,60.5 Z M 108.5,75.5 C 110.337,75.6395 110.67,76.3061 109.5,77.5C 108.702,77.0431 108.369,76.3764 108.5,75.5 Z"/></g>
<g><path style="opacity:0.373" fill="#adf9ae" d="M 11.5,58.5 C 11.5,65.1667 11.5,71.8333 11.5,78.5C 7.5,78.5 3.5,78.5 -0.5,78.5C -0.5,78.1667 -0.5,77.8333 -0.5,77.5C 3.16667,77.5 6.83333,77.5 10.5,77.5C 10.1765,70.9779 10.5098,64.6446 11.5,58.5 Z"/></g>
<g><path style="opacity:0.573" fill="#a3fba9" d="M 118.5,63.5 C 117.202,62.8843 116.202,62.8843 115.5,63.5C 115.167,63.5 114.833,63.5 114.5,63.5C 113.833,63.5 113.5,63.1667 113.5,62.5C 112.833,62.5 112.5,62.1667 112.5,61.5C 113.833,61.1667 113.833,60.8333 112.5,60.5C 112.369,59.6236 112.702,58.9569 113.5,58.5C 115.006,60.4014 116.673,62.0681 118.5,63.5 Z"/></g>
<g><path style="opacity:1" fill="#78f772" d="M 118.5,63.5 C 121.139,64.7058 121.972,66.7058 121,69.5C 120.329,70.2524 119.496,70.5858 118.5,70.5C 117.833,70.5 117.5,70.1667 117.5,69.5C 116.833,69.5 116.5,69.1667 116.5,68.5C 117.833,68.1667 117.833,67.8333 116.5,67.5C 115.833,67.5 115.5,67.1667 115.5,66.5C 116.833,66.1667 116.833,65.8333 115.5,65.5C 115.5,64.8333 115.5,64.1667 115.5,63.5C 116.202,62.8843 117.202,62.8843 118.5,63.5 Z"/></g>
<g><path style="opacity:0.192" fill="#d7fcd7" d="M 108.5,72.5 C 110.709,71.0242 112.042,71.6909 112.5,74.5C 111.395,73.3995 110.062,72.7329 108.5,72.5 Z"/></g>
<g><path style="opacity:0.216" fill="#d0fcd0" d="M 112.5,74.5 C 113.637,75.7888 114.97,76.7888 116.5,77.5C 116.158,78.3382 115.492,78.6716 114.5,78.5C 113.326,77.4863 112.66,76.153 112.5,74.5 Z"/></g>
<g><path style="opacity:0.282" fill="#cdfccd" d="M 105.5,74.5 C 106.167,76.5 106.833,78.5 107.5,80.5C 105.018,78.9148 104.352,76.9148 105.5,74.5 Z"/></g>
<g><path style="opacity:0.677" fill="#fefffe" d="M 364.5,78.5 C 367.076,78.7218 367.91,80.0551 367,82.5C 365.644,83.3802 364.144,83.7135 362.5,83.5C 362.392,81.4862 363.058,79.8195 364.5,78.5 Z"/></g>
<g><path style="opacity:0.816" fill="#fefffe" d="M 339.5,79.5 C 340.833,79.5 342.167,79.5 343.5,79.5C 343.412,84.5364 342.912,89.5364 342,94.5C 338.333,95.8333 334.667,95.8333 331,94.5C 329.342,87.3258 332.175,83.9924 339.5,84.5C 339.5,82.8333 339.5,81.1667 339.5,79.5 Z M 335.5,88.5 C 337.355,88.272 338.188,88.9387 338,90.5C 335.192,91.8596 334.359,91.1929 335.5,88.5 Z"/></g>
<g><path style="opacity:0.767" fill="#fefffe" d="M 435.5,79.5 C 436.833,79.5 438.167,79.5 439.5,79.5C 439.248,84.5186 438.748,89.5186 438,94.5C 436.644,95.3802 435.144,95.7135 433.5,95.5C 434.446,90.2074 435.113,84.874 435.5,79.5 Z"/></g>
<g><path style="opacity:0.757" fill="#fefffe" d="M 473.5,79.5 C 474.833,79.5 476.167,79.5 477.5,79.5C 476.74,84.8202 476.073,90.1535 475.5,95.5C 474.167,95.5 472.833,95.5 471.5,95.5C 471.701,90.0935 472.368,84.7601 473.5,79.5 Z"/></g>
<g><path style="opacity:0.196" fill="#d4fcd4" d="M 107.5,80.5 C 108.708,81.2341 110.041,81.5674 111.5,81.5C 110.07,82.5375 108.403,83.2041 106.5,83.5C 107.11,82.609 107.443,81.609 107.5,80.5 Z"/></g>
<g><path style="opacity:0.805" fill="#fefffe" d="M 369.5,81.5 C 371.199,81.3398 372.866,81.5065 374.5,82C 374.043,82.414 373.709,82.914 373.5,83.5C 375.914,85.5457 375.747,87.5457 373,89.5C 372.505,91.4727 372.338,93.4727 372.5,95.5C 370.801,95.6602 369.134,95.4935 367.5,95C 368.751,92.0468 368.751,89.0468 367.5,86C 368.707,84.6998 369.374,83.1998 369.5,81.5 Z"/></g>
<g><path style="opacity:0.812" fill="#fefffe" d="M 347.5,84.5 C 356.865,83.9358 358.865,87.4358 353.5,95C 344.051,95.8661 342.051,92.3661 347.5,84.5 Z M 348.5,88.5 C 349.5,88.5 350.5,88.5 351.5,88.5C 351.5,89.5 351.5,90.5 351.5,91.5C 348.506,91.8543 347.506,90.8543 348.5,88.5 Z"/></g>
<g><path style="opacity:0.804" fill="#fefffe" d="M 362.5,84.5 C 363.833,84.5 365.167,84.5 366.5,84.5C 366.276,88.1788 365.942,91.8455 365.5,95.5C 364.167,95.5 362.833,95.5 361.5,95.5C 361.552,91.8019 361.886,88.1352 362.5,84.5 Z"/></g>
<g><path style="opacity:0.789" fill="#fefffe" d="M 381.5,84.5 C 383.527,84.3379 385.527,84.5045 387.5,85C 388.191,86.0674 388.691,87.2341 389,88.5C 391.053,84.7084 394.219,83.5418 398.5,85C 402.131,90.7388 400.631,94.2388 394,95.5C 391.855,95.604 390.021,94.9373 388.5,93.5C 386.133,95.3952 383.466,95.8952 380.5,95C 380.153,92.6843 379.82,90.3509 379.5,88C 379.978,86.6974 380.645,85.5307 381.5,84.5 Z M 394.5,87.5 C 397.137,89.1538 396.803,89.6538 393.5,89C 394.056,88.6174 394.389,88.1174 394.5,87.5 Z"/></g>
<g><path style="opacity:0.825" fill="#fefffe" d="M 404.5,84.5 C 407.898,84.1796 411.232,84.513 414.5,85.5C 413.873,88.7021 413.206,91.8688 412.5,95C 408.909,95.7886 405.409,95.6219 402,94.5C 400.863,90.5369 401.697,87.2036 404.5,84.5 Z M 406.5,88.5 C 408.355,88.272 409.188,88.9387 409,90.5C 406.192,91.8596 405.359,91.1929 406.5,88.5 Z"/></g>
<g><path style="opacity:0.814" fill="#fefffe" d="M 415.5,84.5 C 421.315,84.9963 426.981,84.9963 432.5,84.5C 432.665,87.8499 432.498,91.1832 432,94.5C 430.644,95.3802 429.144,95.7135 427.5,95.5C 428.363,93.1046 428.363,90.7713 427.5,88.5C 426.914,88.7093 426.414,89.0426 426,89.5C 425.505,91.4727 425.338,93.4727 425.5,95.5C 423.801,95.6602 422.134,95.4935 420.5,95C 421.602,92.5991 421.769,90.0991 421,87.5C 418.977,89.7693 418.144,92.4359 418.5,95.5C 417.167,95.5 415.833,95.5 414.5,95.5C 414.552,91.8019 414.886,88.1352 415.5,84.5 Z"/></g>
<g><path style="opacity:0.778" fill="#fefffe" d="M 442.5,84.5 C 448.622,82.9652 451.956,85.2985 452.5,91.5C 452.347,89.4999 452.68,87.3332 453.5,85C 456.453,84.1075 459.119,84.6075 461.5,86.5C 463.867,84.6048 466.534,84.1048 469.5,85C 469.459,87.7322 469.626,90.5656 470,93.5C 467,96.1667 464,96.1667 461,93.5C 458.503,95.4782 455.669,95.9782 452.5,95C 451.471,91.9429 450.138,91.9429 448.5,95C 439.051,95.8661 437.051,92.3661 442.5,84.5 Z M 445.5,87.5 C 448.137,89.1538 447.803,89.6538 444.5,89C 445.056,88.6174 445.389,88.1174 445.5,87.5 Z"/></g>
<g><path style="opacity:0.794" fill="#fefffe" d="M 482.5,99.5 C 480.833,99.5 479.167,99.5 477.5,99.5C 478.431,97.9668 479.098,96.3002 479.5,94.5C 478.512,91.2184 477.846,87.8851 477.5,84.5C 481.038,84.2153 482.871,85.882 483,89.5C 483.477,85.251 485.643,83.9177 489.5,85.5C 487.14,90.2198 484.807,94.8864 482.5,99.5 Z"/></g>
<g><path style="opacity:0.776" fill="#fefffe" d="M 314.5,90.5 C 318.161,90.3501 319.161,91.8501 317.5,95C 316.207,95.49 314.873,95.6567 313.5,95.5C 313.366,93.7085 313.699,92.0418 314.5,90.5 Z"/></g>
<g><path style="opacity:0.739" fill="#fefffe" d="M 320.5,90.5 C 323.458,91.5411 326.458,91.5411 329.5,90.5C 329.5,92.1667 329.5,93.8333 329.5,95.5C 326.065,94.6322 322.731,94.6322 319.5,95.5C 319.366,93.7085 319.699,92.0418 320.5,90.5 Z"/></g>
</svg>
