<?xml version="1.0" encoding="UTF-8"?>
<!DOCTYPE svg PUBLIC "-//W3C//DTD SVG 1.1//EN" "http://www.w3.org/Graphics/SVG/1.1/DTD/svg11.dtd">
<svg xmlns="http://www.w3.org/2000/svg" version="1.1" width="260px" height="44px" style="shape-rendering:geometricPrecision; text-rendering:geometricPrecision; image-rendering:optimizeQuality; fill-rule:evenodd; clip-rule:evenodd" xmlns:xlink="http://www.w3.org/1999/xlink">
<g><path style="opacity:0.718" fill="#fefefe" d="M -0.5,-0.5 C 5.83333,-0.5 12.1667,-0.5 18.5,-0.5C 20.7385,0.541935 22.9052,1.87527 25,3.5C 25.49,4.79323 25.6567,6.12656 25.5,7.5C 24.2876,8.22987 23.2876,9.22987 22.5,10.5C 21.0186,9.51968 19.6853,8.35301 18.5,7C 12.1754,6.50046 5.84209,6.33379 -0.5,6.5C -0.5,4.16667 -0.5,1.83333 -0.5,-0.5 Z"/></g>
<g><path style="opacity:1" fill="#65f55a" d="M 36.5,-0.5 C 40.5,-0.5 44.5,-0.5 48.5,-0.5C 58.8012,3.6097 63.4679,11.1097 62.5,22C 56.0823,23.6071 53.749,21.1071 55.5,14.5C 55.7148,12.8212 55.0481,11.8212 53.5,11.5C 49.0983,5.55387 43.4317,4.05387 36.5,7C 34,8.16667 32.1667,10 31,12.5C 29.9499,17.0573 28.4499,21.3906 26.5,25.5C 25.8333,25.5 25.5,25.8333 25.5,26.5C 24.8333,26.5 24.5,26.8333 24.5,27.5C 22.8333,28.1667 21.1667,28.8333 19.5,29.5C 19.6408,27.9319 19.9742,26.2652 20.5,24.5C 20.0431,23.7025 19.3764,23.3691 18.5,23.5C 19.8361,21.9897 21.0027,20.3231 22,18.5C 22.6047,14.6315 23.7713,10.9648 25.5,7.5C 28.6735,4.08713 32.3402,1.42046 36.5,-0.5 Z"/></g>
<g><path style="opacity:0.604" fill="#fefefe" d="M 188.5,7.5 C 194.076,8.55545 194.743,10.8888 190.5,14.5C 186.502,12.888 185.836,10.5547 188.5,7.5 Z"/></g>
<g><path style="opacity:0.737" fill="#fefefe" d="M 141.5,8.5 C 146.93,8.30343 151.263,10.3034 154.5,14.5C 156.833,15.1667 159.167,15.8333 161.5,16.5C 162.667,20.1667 163.833,23.8333 165,27.5C 166.505,23.6498 168.005,19.8165 169.5,16C 171.259,15.2025 172.926,15.3691 174.5,16.5C 175.765,19.7957 176.932,23.129 178,26.5C 179.691,23.0991 181.191,19.5991 182.5,16C 185.817,15.5017 189.15,15.335 192.5,15.5C 192.5,22.1667 192.5,28.8333 192.5,35.5C 190.833,35.5 189.167,35.5 187.5,35.5C 187.666,30.1563 187.499,24.8229 187,19.5C 185.068,24.4616 183.235,29.4616 181.5,34.5C 179.5,35.8333 177.5,35.8333 175.5,34.5C 174.235,31.2043 173.068,27.871 172,24.5C 170.284,27.6401 168.951,30.9734 168,34.5C 166.274,35.5762 164.441,35.7429 162.5,35C 160.279,30.3393 158.445,25.5059 157,20.5C 157.59,26.0443 155.757,30.5443 151.5,34C 156.118,38.1448 155.452,39.8115 149.5,39C 148.382,37.9264 147.382,36.7598 146.5,35.5C 136.198,36.7188 130.365,32.0521 129,21.5C 126.333,28.1667 123.667,34.8333 121,41.5C 118.936,42.5914 116.769,42.7581 114.5,42C 115.885,39.848 116.885,37.5146 117.5,35C 115.195,29.556 113.028,24.056 111,18.5C 110.501,24.1569 110.334,29.8236 110.5,35.5C 108.533,35.7394 106.699,35.4061 105,34.5C 95.752,37.9718 90.4187,34.6385 89,24.5C 86.2816,26.7945 83.115,27.7945 79.5,27.5C 79.5,30.1667 79.5,32.8333 79.5,35.5C 77.5,35.5 75.5,35.5 73.5,35.5C 73.5,26.8333 73.5,18.1667 73.5,9.5C 78.6278,9.11151 83.6278,9.61151 88.5,11C 90.7744,13.3443 91.9411,16.1776 92,19.5C 95.7897,15.1459 100.123,14.4793 105,17.5C 106.525,16.2799 108.359,15.6132 110.5,15.5C 112.167,15.6667 113.833,15.8333 115.5,16C 117.205,19.9096 119.038,23.7429 121,27.5C 122.402,23.7931 123.902,20.1264 125.5,16.5C 127.353,15.2404 129.186,15.2404 131,16.5C 133.271,12.0445 136.771,9.37783 141.5,8.5 Z M 79.5,14.5 C 85.1581,13.6794 86.8248,15.846 84.5,21C 82.8659,21.4935 81.1992,21.6602 79.5,21.5C 79.5,19.1667 79.5,16.8333 79.5,14.5 Z M 140.5,14.5 C 150.638,14.752 153.471,19.4187 149,28.5C 147.089,25.697 144.589,25.0304 141.5,26.5C 144.798,30.0023 144.131,31.169 139.5,30C 133.974,24.357 134.308,19.1903 140.5,14.5 Z M 98.5,20.5 C 105.299,21.1086 106.966,24.2753 103.5,30C 95.0304,30.531 93.3638,27.3643 98.5,20.5 Z"/></g>
<g><path style="opacity:0.73" fill="#fefefe" d="M 231.5,17.5 C 230.833,17.5 230.5,17.8333 230.5,18.5C 227.835,20.6402 225.502,23.1402 223.5,26C 225.37,28.0396 227.37,29.8729 229.5,31.5C 229.5,32.1667 229.833,32.5 230.5,32.5C 230.5,33.1667 230.833,33.5 231.5,33.5C 230.848,34.7251 229.681,35.3917 228,35.5C 224.829,34.3491 222.162,32.3491 220,29.5C 219.505,31.4727 219.338,33.4727 219.5,35.5C 217.25,35.8186 215.25,35.3186 213.5,34C 214.591,31.9361 214.758,29.7695 214,27.5C 211.372,35.1573 206.206,37.6573 198.5,35C 193.78,31.7015 192.28,27.2015 194,21.5C 197.748,15.4578 202.915,13.9578 209.5,17C 211.617,18.7309 213.117,20.8976 214,23.5C 214.499,18.5111 214.666,13.5111 214.5,8.5C 216.167,8.5 217.833,8.5 219.5,8.5C 219.334,12.8461 219.501,17.1794 220,21.5C 222.199,18.4475 225.032,16.4475 228.5,15.5C 230.03,15.6399 231.03,16.3065 231.5,17.5 Z M 202.5,20.5 C 205.272,20.5952 207.272,21.9285 208.5,24.5C 210.423,25.3078 212.423,25.8078 214.5,26C 211.096,26.0141 208.43,27.3475 206.5,30C 201.932,31.6505 199.266,30.1505 198.5,25.5C 199.127,23.2127 200.46,21.546 202.5,20.5 Z"/></g>
<g><path style="opacity:0.847" fill="#a9f9a1" d="M 53.5,11.5 C 55.0481,11.8212 55.7148,12.8212 55.5,14.5C 54.5987,13.7095 53.9321,12.7095 53.5,11.5 Z"/></g>
<g><path style="opacity:0.712" fill="#fefefe" d="M 259.5,15.5 C 259.5,17.5 259.5,19.5 259.5,21.5C 258.178,21.33 257.011,21.6634 256,22.5C 255.501,26.8206 255.334,31.1539 255.5,35.5C 253.5,35.5 251.5,35.5 249.5,35.5C 249.664,32.8127 249.497,30.146 249,27.5C 247.899,32.9325 244.566,35.9325 239,36.5C 236.171,36.1716 233.671,35.1716 231.5,33.5C 230.833,33.5 230.5,33.1667 230.5,32.5C 229.833,32.5 229.5,32.1667 229.5,31.5C 227.946,26.9566 228.279,22.6233 230.5,18.5C 231.167,18.5 231.5,18.1667 231.5,17.5C 239.554,13.3746 245.387,15.3746 249,23.5C 249.497,20.854 249.664,18.1873 249.5,15.5C 251.766,15.1412 253.599,15.8078 255,17.5C 256.33,16.4178 257.83,15.7512 259.5,15.5 Z M 236.5,20.5 C 239.346,20.0301 241.679,20.8634 243.5,23C 240.5,23.6667 237.5,23.6667 234.5,23C 235.381,22.2917 236.047,21.4584 236.5,20.5 Z M 234.5,29.5 C 237.304,28.3622 240.304,28.1955 243.5,29C 240.644,32.1223 237.644,32.2889 234.5,29.5 Z"/></g>
<g><path style="opacity:0.734" fill="#fefefe" d="M 24.5,27.5 C 25.1667,27.5 25.5,27.1667 25.5,26.5C 26.1667,26.5 26.5,26.1667 26.5,25.5C 27.4584,25.0472 28.2917,24.3805 29,23.5C 31.3017,30.6408 36.135,34.6408 43.5,35.5C 43.5,37.5 43.5,39.5 43.5,41.5C 36.469,41.4349 30.6356,38.7682 26,33.5C 24.872,31.6547 24.372,29.6547 24.5,27.5 Z"/></g>
<g><path style="opacity:0.999" fill="#3bf338" d="M 6.5,24.5 C 9.97579,25.6433 13.6425,25.8099 17.5,25C 18.056,24.6174 18.3893,24.1174 18.5,23.5C 19.3764,23.3691 20.0431,23.7025 20.5,24.5C 19.9742,26.2652 19.6408,27.9319 19.5,29.5C 19.1667,29.5 18.8333,29.5 18.5,29.5C 14.1667,29.5 9.83333,29.5 5.5,29.5C 5.5,33.1667 5.5,36.8333 5.5,40.5C 3.5,40.5 1.5,40.5 -0.5,40.5C -0.5,35.1667 -0.5,29.8333 -0.5,24.5C 1.79222,23.3139 4.12556,23.3139 6.5,24.5 Z"/></g>
<g><path style="opacity:0.447" fill="#90f890" d="M 18.5,23.5 C 18.3893,24.1174 18.056,24.6174 17.5,25C 13.6425,25.8099 9.97579,25.6433 6.5,24.5C 10.5662,24.693 14.5662,24.3597 18.5,23.5 Z"/></g>
<g><path style="opacity:1" fill="#52f44b" d="M 57.5,29.5 C 59.3751,32.5884 60.7085,35.9217 61.5,39.5C 59.9755,38.8262 58.6422,37.8262 57.5,36.5C 54.2432,38.0289 53.5766,40.3622 55.5,43.5C 54.5,43.5 53.5,43.5 52.5,43.5C 49.7976,39.7708 47.9643,35.7708 47,31.5C 49.5864,29.4552 52.4198,27.7885 55.5,26.5C 56.9185,27.0047 57.5852,28.0047 57.5,29.5 Z"/></g>
<g><path style="opacity:0.267" fill="#cefcce" d="M 18.5,29.5 C 14.7016,30.4834 10.7016,30.8168 6.5,30.5C 6.5,34.1667 6.5,37.8333 6.5,41.5C 4.16667,41.5 1.83333,41.5 -0.5,41.5C -0.5,41.1667 -0.5,40.8333 -0.5,40.5C 1.5,40.5 3.5,40.5 5.5,40.5C 5.5,36.8333 5.5,33.1667 5.5,29.5C 9.83333,29.5 14.1667,29.5 18.5,29.5 Z"/></g>
<g><path style="opacity:0.314" fill="#a7faa8" d="M 57.5,29.5 C 63.3775,31.298 64.7109,34.6314 61.5,39.5C 60.7085,35.9217 59.3751,32.5884 57.5,29.5 Z"/></g>
<g><path style="opacity:0.639" fill="#92f88f" d="M 61.5,39.5 C 60.4726,41.1942 59.1392,42.5275 57.5,43.5C 56.8333,43.5 56.1667,43.5 55.5,43.5C 53.5766,40.3622 54.2432,38.0289 57.5,36.5C 58.6422,37.8262 59.9755,38.8262 61.5,39.5 Z"/></g>
</svg>
