<?xml version="1.0" encoding="UTF-8"?>
<!DOCTYPE svg PUBLIC "-//W3C//DTD SVG 1.1//EN" "http://www.w3.org/Graphics/SVG/1.1/DTD/svg11.dtd">
<svg xmlns="http://www.w3.org/2000/svg" version="1.1" width="400px" height="67px" style="shape-rendering:geometricPrecision; text-rendering:geometricPrecision; image-rendering:optimizeQuality; fill-rule:evenodd; clip-rule:evenodd" xmlns:xlink="http://www.w3.org/1999/xlink">
<g><path style="opacity:0.832" fill="#fefefe" d="M -0.5,-0.5 C 8.5,-0.5 17.5,-0.5 26.5,-0.5C 31.5644,0.870806 35.8977,3.53747 39.5,7.5C 37.9033,10.3705 36.07,13.0372 34,15.5C 31.8158,12.9834 29.3158,10.8167 26.5,9C 17.5062,8.50023 8.50617,8.33356 -0.5,8.5C -0.5,5.5 -0.5,2.5 -0.5,-0.5 Z"/></g>
<g><path style="opacity:1" fill="#53f44b" d="M 57.5,-0.5 C 62.8333,-0.5 68.1667,-0.5 73.5,-0.5C 85.3275,3.3295 92.6609,11.3295 95.5,23.5C 95.5,26.1667 95.5,28.8333 95.5,31.5C 92.8333,31.5 90.1667,31.5 87.5,31.5C 87.7845,29.5853 87.4511,27.9187 86.5,26.5C 80.6254,8.72709 69.2921,3.89376 52.5,12C 46.8939,18.4699 43.3939,25.9699 42,34.5C 38.9569,39.8768 34.4569,43.3768 28.5,45C 22.1754,45.4995 15.8421,45.6662 9.5,45.5C 9.5,50.8333 9.5,56.1667 9.5,61.5C 6.16667,61.5 2.83333,61.5 -0.5,61.5C -0.5,53.1667 -0.5,44.8333 -0.5,36.5C 5.51613,36.5013 11.5161,36.8346 17.5,37.5C 24.1869,38.2234 29.3535,35.8901 33,30.5C 34.7654,14.9211 42.9321,4.58779 57.5,-0.5 Z"/></g>
<g><path style="opacity:0.746" fill="#fefefe" d="M 290.5,11.5 C 296.192,11.6263 297.858,14.2929 295.5,19.5C 287.254,20.9222 285.587,18.2555 290.5,11.5 Z"/></g>
<g><path style="opacity:0.791" fill="#fefefe" d="M 329.5,12.5 C 332.167,12.5 334.833,12.5 337.5,12.5C 337.334,19.5079 337.5,26.5079 338,33.5C 340.833,30.6667 343.667,27.8333 346.5,25C 349.554,24.1786 352.554,24.3452 355.5,25.5C 351.301,29.8629 347.301,34.3629 343.5,39C 346.952,43.4549 350.786,47.6216 355,51.5C 355.667,52.5 355.667,53.5 355,54.5C 352.26,53.7178 349.426,53.2178 346.5,53C 343.667,50.1667 340.833,47.3333 338,44.5C 337.502,47.4816 337.335,50.4816 337.5,53.5C 334.833,53.5 332.167,53.5 329.5,53.5C 329.5,39.8333 329.5,26.1667 329.5,12.5 Z"/></g>
<g><path style="opacity:0.825" fill="#fefefe" d="M 216.5,13.5 C 226.777,12.5212 234.277,16.5212 239,25.5C 241.737,24.3895 244.571,24.2228 247.5,25C 249.859,31.0747 252.025,37.2413 254,43.5C 255.975,37.2413 258.141,31.0747 260.5,25C 263.099,24.231 265.599,24.3977 268,25.5C 270.399,31.3634 272.399,37.3634 274,43.5C 276.246,37.3406 278.413,31.174 280.5,25C 285.823,24.5006 291.156,24.334 296.5,24.5C 296.5,34.1667 296.5,43.8333 296.5,53.5C 293.833,53.5 291.167,53.5 288.5,53.5C 288.666,44.4938 288.5,35.4938 288,26.5C 284.329,35.3466 281.163,44.3466 278.5,53.5C 275.552,53.7771 272.719,53.4438 270,52.5C 268,46.5 266,40.5 264,34.5C 262,40.5 260,46.5 258,52.5C 255.281,53.4438 252.448,53.7771 249.5,53.5C 246.688,45.1981 243.855,36.8647 241,28.5C 242.287,37.6483 239.454,45.1483 232.5,51C 234.032,53.0344 235.365,55.2011 236.5,57.5C 231.415,59.7906 227.915,58.4573 226,53.5C 208.825,55.7151 199.825,48.0484 199,30.5C 194.528,41.5817 189.862,52.5817 185,63.5C 182.619,64.435 180.119,64.7683 177.5,64.5C 178.132,60.4391 179.465,56.6058 181.5,53C 177.667,44.1667 173.833,35.3333 170,26.5C 169.5,35.4938 169.334,44.4938 169.5,53.5C 167.167,53.5 164.833,53.5 162.5,53.5C 162.557,49.8669 161.557,49.7002 159.5,53C 145.295,56.146 138.128,50.3127 138,35.5C 133.432,39.9863 127.932,41.653 121.5,40.5C 121.5,44.8333 121.5,49.1667 121.5,53.5C 118.833,53.5 116.167,53.5 113.5,53.5C 113.5,40.5 113.5,27.5 113.5,14.5C 119.509,14.3338 125.509,14.5005 131.5,15C 138.084,17.9902 141.251,23.1568 141,30.5C 146.993,22.5962 153.993,21.5962 162,27.5C 162.483,26.552 162.649,25.552 162.5,24.5C 167.833,24.5 173.167,24.5 178.5,24.5C 180.264,30.6994 182.598,36.6994 185.5,42.5C 188.26,36.7261 190.926,30.8928 193.5,25C 196.553,24.8214 199.553,24.3214 202.5,23.5C 205.871,18.1653 210.537,14.832 216.5,13.5 Z M 121.5,21.5 C 125.516,20.8999 129.016,21.8999 132,24.5C 132.782,27.2569 132.282,29.7569 130.5,32C 127.607,33.1488 124.607,33.6488 121.5,33.5C 121.5,29.5 121.5,25.5 121.5,21.5 Z M 216.5,21.5 C 229.312,20.8164 234.479,26.8164 232,39.5C 231.363,41.3031 230.197,42.6364 228.5,43.5C 226.095,38.7264 222.429,37.3931 217.5,39.5C 218.635,41.7989 219.968,43.9656 221.5,46C 211.916,46.0789 207.416,41.2456 208,31.5C 209.289,26.7209 212.123,23.3875 216.5,21.5 Z M 153.5,30.5 C 161.716,32.2656 164.05,36.9323 160.5,44.5C 153.039,49.6 148.373,47.7667 146.5,39C 146.52,34.1543 148.854,31.321 153.5,30.5 Z"/></g>
<g><path style="opacity:0.808" fill="#fefefe" d="M 309.5,23.5 C 319.913,22.9418 326.247,27.6084 328.5,37.5C 325.833,37.5 323.167,37.5 320.5,37.5C 319.81,33.3117 317.31,30.9784 313,30.5C 305.811,32.299 303.478,36.6323 306,43.5C 312.14,49.274 317.307,48.4407 321.5,41C 323.81,40.5034 326.143,40.3367 328.5,40.5C 327.319,49.512 322.152,54.1787 313,54.5C 301.246,53.016 296.246,46.3494 298,34.5C 300.412,29.2523 304.246,25.5857 309.5,23.5 Z"/></g>
<g><path style="opacity:0.805" fill="#fefefe" d="M 363.5,23.5 C 376.904,22.9042 383.238,29.2376 382.5,42.5C 374.826,42.3336 367.159,42.5003 359.5,43C 364.124,48.6118 369.124,48.9452 374.5,44C 377.227,43.1816 379.894,43.3483 382.5,44.5C 376.821,54.3372 368.821,56.8372 358.5,52C 351.267,46.0333 349.767,38.8667 354,30.5C 356.529,27.1151 359.696,24.7818 363.5,23.5 Z M 364.5,30.5 C 368.724,30.1135 372.057,31.6135 374.5,35C 369.5,35.6667 364.5,35.6667 359.5,35C 361.063,33.264 362.73,31.764 364.5,30.5 Z"/></g>
<g><path style="opacity:0.863" fill="#fefefe" d="M 399.5,23.5 C 399.5,26.1667 399.5,28.8333 399.5,31.5C 395.91,31.5441 393.41,33.2108 392,36.5C 391.501,42.1569 391.334,47.8236 391.5,53.5C 389.167,53.5 386.833,53.5 384.5,53.5C 384.5,43.8333 384.5,34.1667 384.5,24.5C 386.833,24.5 389.167,24.5 391.5,24.5C 391.443,28.1331 392.443,28.2998 394.5,25C 396.247,24.6481 397.914,24.1481 399.5,23.5 Z"/></g>
<g><path style="opacity:0.795" fill="#7ef77b" d="M 95.5,23.5 C 96.4767,26.2869 96.81,29.2869 96.5,32.5C 93.1667,32.5 89.8333,32.5 86.5,32.5C 86.5,30.5 86.5,28.5 86.5,26.5C 87.4511,27.9187 87.7845,29.5853 87.5,31.5C 90.1667,31.5 92.8333,31.5 95.5,31.5C 95.5,28.8333 95.5,26.1667 95.5,23.5 Z"/></g>
<g><path style="opacity:0.818" fill="#fefefe" d="M 42.5,36.5 C 43.5,36.5 44.5,36.5 45.5,36.5C 48.0764,47.2378 54.9097,53.2378 66,54.5C 66.4974,57.146 66.6641,59.8127 66.5,62.5C 53.3598,62.2693 43.6931,56.436 37.5,45C 39.0061,42.0122 40.6728,39.1788 42.5,36.5 Z"/></g>
<g><path style="opacity:1" fill="#4cf346" d="M 88.5,45.5 C 88.9321,46.7095 89.5987,47.7095 90.5,48.5C 90.5,48.8333 90.5,49.1667 90.5,49.5C 90.8333,50.5 91.5,51.1667 92.5,51.5C 92.5,51.8333 92.5,52.1667 92.5,52.5C 92.5,53.1667 92.8333,53.5 93.5,53.5C 93.5,53.8333 93.5,54.1667 93.5,54.5C 93.8333,55.5 94.5,56.1667 95.5,56.5C 97.0024,58.8293 96.3357,60.1627 93.5,60.5C 92.391,60.4431 91.391,60.1098 90.5,59.5C 89.0853,54.7781 87.0853,54.4448 84.5,58.5C 83.1472,60.1284 83.4805,61.4617 85.5,62.5C 85.5,63.5 85.5,64.5 85.5,65.5C 85.5,65.8333 85.5,66.1667 85.5,66.5C 83.8333,66.5 82.1667,66.5 80.5,66.5C 77.8333,61.1667 75.1667,55.8333 72.5,50.5C 72.5569,49.391 72.8902,48.391 73.5,47.5C 77.0359,44.8091 80.8692,42.4757 85,40.5C 86.7754,41.7698 87.942,43.4365 88.5,45.5 Z"/></g>
<g><path style="opacity:0.286" fill="#c5fdc9" d="M 88.5,45.5 C 90.9328,45.2729 92.5994,46.2729 93.5,48.5C 92.375,49.3478 92.375,50.3478 93.5,51.5C 93.1667,51.5 92.8333,51.5 92.5,51.5C 91.5,51.1667 90.8333,50.5 90.5,49.5C 91.8333,49.1667 91.8333,48.8333 90.5,48.5C 89.5987,47.7095 88.9321,46.7095 88.5,45.5 Z"/></g>
<g><path style="opacity:0.298" fill="#c5fbc4" d="M 73.5,47.5 C 72.8902,48.391 72.5569,49.391 72.5,50.5C 71.1148,49.0527 71.4482,48.0527 73.5,47.5 Z"/></g>
<g><path style="opacity:1" fill="#6ef669" d="M 93.5,48.5 C 96.5694,49.8044 97.5694,51.8044 96.5,54.5C 95.8333,54.5 95.1667,54.5 94.5,54.5C 94.5,53.8333 94.1667,53.5 93.5,53.5C 92.8333,53.5 92.5,53.1667 92.5,52.5C 93.1667,52.5 93.5,52.1667 93.5,51.5C 92.375,50.3478 92.375,49.3478 93.5,48.5 Z"/></g>
<g><path style="opacity:0.106" fill="#ddfde1" d="M 93.5,54.5 C 93.8333,54.5 94.1667,54.5 94.5,54.5C 95.1667,54.5 95.8333,54.5 96.5,54.5C 96.1667,55.1667 95.8333,55.8333 95.5,56.5C 94.5,56.1667 93.8333,55.5 93.5,54.5 Z"/></g>
<g><path style="opacity:0.89" fill="#89f783" d="M 90.5,59.5 C 89.6043,58.4937 88.9377,58.4937 88.5,59.5C 85.8333,59.8333 85.8333,60.1667 88.5,60.5C 86.5069,61.4716 86.1736,62.8049 87.5,64.5C 86.8333,64.8333 86.1667,65.1667 85.5,65.5C 85.5,64.5 85.5,63.5 85.5,62.5C 85.1667,61.1667 84.8333,59.8333 84.5,58.5C 87.0853,54.4448 89.0853,54.7781 90.5,59.5 Z"/></g>
<g><path style="opacity:0.282" fill="#c2fbc1" d="M 84.5,58.5 C 84.8333,59.8333 85.1667,61.1667 85.5,62.5C 83.4805,61.4617 83.1472,60.1284 84.5,58.5 Z"/></g>
<g><path style="opacity:0.373" fill="#bcfbbd" d="M 90.5,59.5 C 91.391,60.1098 92.391,60.4431 93.5,60.5C 93.1583,61.3382 92.4916,61.6716 91.5,61.5C 90.6618,61.1583 90.3284,60.4916 90.5,59.5 Z"/></g>
<g><path style="opacity:1" fill="#66f459" d="M 90.5,59.5 C 90.3284,60.4916 90.6618,61.1583 91.5,61.5C 91.2381,63.5638 90.0714,64.8971 88,65.5C 87.6012,65.2716 87.4346,64.9382 87.5,64.5C 86.1736,62.8049 86.5069,61.4716 88.5,60.5C 88.5,60.1667 88.5,59.8333 88.5,59.5C 88.9377,58.4937 89.6043,58.4937 90.5,59.5 Z"/></g>
</svg>
