<?xml version="1.0" encoding="UTF-8"?>
<!DOCTYPE svg PUBLIC "-//W3C//DTD SVG 1.1//EN" "http://www.w3.org/Graphics/SVG/1.1/DTD/svg11.dtd">
<svg xmlns="http://www.w3.org/2000/svg" version="1.1" width="8575px" height="1427px" style="shape-rendering:geometricPrecision; text-rendering:geometricPrecision; image-rendering:optimizeQuality; fill-rule:evenodd; clip-rule:evenodd" xmlns:xlink="http://www.w3.org/1999/xlink">
<g><path style="opacity:0.996" fill="#2df030" d="M 1389.5,-0.5 C 1408.17,-0.5 1426.83,-0.5 1445.5,-0.5C 1605.8,9.84492 1745.13,68.6783 1863.5,176C 1973.58,281.308 2040.08,409.808 2063,561.5C 2065.48,585.82 2067.81,610.154 2070,634.5C 2070.67,653.5 2070.67,672.5 2070,691.5C 2068.77,695.704 2065.94,697.87 2061.5,698C 2002.5,698.667 1943.5,698.667 1884.5,698C 1881.99,697.907 1879.83,697.074 1878,695.5C 1882.17,586.864 1857.17,485.53 1803,391.5C 1757.64,315.47 1696.47,255.636 1619.5,212C 1509,155.349 1394.33,145.349 1275.5,182C 1239.12,193.192 1205.12,209.192 1173.5,230C 1093.14,283.367 1033.31,354.2 994,442.5C 977.62,476.307 965.62,511.64 958,548.5C 950.206,580.47 942.539,612.47 935,644.5C 925.731,679.696 912.064,713.029 894,744.5C 824.035,858.937 723.535,931.437 592.5,962C 567.333,966.389 542,969.389 516.5,971C 410.167,971.333 303.833,971.667 197.5,972C 195.926,973.826 195.093,975.993 195,978.5C 194.195,1064.67 194.362,1150.84 195.5,1237C 194.78,1261.16 194.28,1285.33 194,1309.5C 193.5,1310 193,1310.5 192.5,1311C 134.179,1312.59 75.8461,1312.92 17.5,1312C 12.5,1311.67 7.5,1311.33 2.5,1311C 1.23289,1307.81 0.232892,1304.65 -0.5,1301.5C -0.5,1297.5 -0.5,1293.5 -0.5,1289.5C 0.333155,1132.67 0.833155,975.667 1,818.5C 1.23622,816.236 1.73622,814.069 2.5,812C 9.57098,809.065 16.9043,807.065 24.5,806C 61.1304,803.044 97.797,802.71 134.5,805C 227.592,810.917 320.758,815.084 414,817.5C 452.331,817.417 490.498,814.917 528.5,810C 603.374,796.412 662.54,758.578 706,696.5C 729.436,662.623 746.102,625.623 756,585.5C 780.353,390.859 870.853,235.692 1027.5,120C 1136.37,44.9886 1257.03,4.8219 1389.5,-0.5 Z"/></g>
<g><path style="opacity:0.994" fill="#fdfdfd" d="M -0.5,126.5 C -0.5,95.5 -0.5,64.5 -0.5,33.5C 0.0711819,27.6923 1.07118,21.859 2.5,16C 176.5,15.3333 350.5,15.3333 524.5,16C 649.951,24.6481 754.784,75.1481 839,167.5C 840.923,171.805 840.923,176.138 839,180.5C 806.936,232.237 775.27,284.237 744,336.5C 740.021,340.644 736.355,340.31 733,335.5C 711.331,291.157 680.831,253.991 641.5,224C 604.974,196.914 563.974,181.248 518.5,177C 350.477,176.047 182.477,176.38 14.5,178C 7.52632,177.023 3.02632,173.19 1,166.5C 0.831025,152.994 0.331025,139.66 -0.5,126.5 Z"/></g>
<g><path style="opacity:0.992" fill="#fdfdfd" d="M 6266.5,272.5 C 6300.6,270.122 6327.77,282.455 6348,309.5C 6361.96,335.111 6364.3,361.778 6355,389.5C 6342.07,418.426 6319.9,435.26 6288.5,440C 6244.92,443.966 6214.08,426.132 6196,386.5C 6186.31,355.639 6190.98,327.306 6210,301.5C 6225.42,285.039 6244.26,275.372 6266.5,272.5 Z"/></g>
<g><path style="opacity:0.994" fill="#fdfdfd" d="M 7088.5,293.5 C 7132.83,293.5 7177.17,293.5 7221.5,293.5C 7221.33,456.167 7221.5,618.834 7222,781.5C 7299.2,701.97 7376.03,622.137 7452.5,542C 7508.84,541.167 7565.17,541.333 7621.5,542.5C 7529.48,642.068 7437.81,741.901 7346.5,842C 7440.95,942.386 7535.28,1042.89 7629.5,1143.5C 7572.84,1144.67 7516.17,1144.83 7459.5,1144C 7379.97,1061.47 7300.8,978.636 7222,895.5C 7221.5,978.499 7221.33,1061.5 7221.5,1144.5C 7177.17,1144.5 7132.83,1144.5 7088.5,1144.5C 7088.5,860.833 7088.5,577.167 7088.5,293.5 Z"/></g>
<g><path style="opacity:0.995" fill="#fdfdfd" d="M 4720.5,314.5 C 4875.59,311.301 4998.76,371.635 5090,495.5C 5143.93,576.529 5167.59,665.862 5161,763.5C 5154.05,875.213 5110.55,969.713 5030.5,1047C 5013.59,1062.45 4995.59,1076.45 4976.5,1089C 5008.54,1140.25 5040.21,1191.75 5071.5,1243.5C 5022.5,1244.67 4973.5,1244.83 4924.5,1244C 4903.6,1210.76 4883.1,1177.26 4863,1143.5C 4862.26,1142.43 4861.26,1141.76 4860,1141.5C 4790.29,1160.15 4719.79,1163.65 4648.5,1152C 4524.57,1128.49 4429.07,1063.66 4362,957.5C 4322.13,889.513 4302.63,816.013 4303.5,737C 4304.14,593.054 4361.8,478.388 4476.5,393C 4549.78,342.172 4631.12,316.005 4720.5,314.5 Z M 4716.5,451.5 C 4833.35,447.826 4921.85,495.492 4982,594.5C 5009.07,646.191 5020.41,701.191 5016,759.5C 5010.85,847.18 4973.18,916.847 4903,968.5C 4879.5,930.333 4856,892.167 4832.5,854C 4783.17,853.333 4733.83,853.333 4684.5,854C 4717.44,908.597 4750.77,962.931 4784.5,1017C 4659.44,1036.03 4561.61,993.532 4491,889.5C 4463.06,842.599 4449.23,791.766 4449.5,737C 4450.99,630 4496.33,547.666 4585.5,490C 4626.19,466.711 4669.86,453.877 4716.5,451.5 Z"/></g>
<g><path style="opacity:0.995" fill="#fdfdfd" d="M 2453.5,329.5 C 2555.5,329.333 2657.5,329.5 2759.5,330C 2854.33,337.28 2926.5,381.114 2976,461.5C 3005.44,517.491 3015.44,576.825 3006,639.5C 2996.17,702.685 2967,754.851 2918.5,796C 2872.86,834.004 2820.2,855.004 2760.5,859C 2705.17,859.5 2649.83,859.667 2594.5,859.5C 2594.5,954.5 2594.5,1049.5 2594.5,1144.5C 2547.5,1144.5 2500.5,1144.5 2453.5,1144.5C 2453.5,872.833 2453.5,601.167 2453.5,329.5 Z M 2594.5,462.5 C 2646.5,462.333 2698.5,462.5 2750.5,463C 2803.94,471.434 2839.44,501.268 2857,552.5C 2868.36,593.199 2863.69,631.866 2843,668.5C 2818.04,705.237 2783.21,724.737 2738.5,727C 2690.5,727.5 2642.5,727.667 2594.5,727.5C 2594.5,639.167 2594.5,550.833 2594.5,462.5 Z"/></g>
<g><path style="opacity:0.995" fill="#fdfdfd" d="M 3270.5,527.5 C 3366.52,521.609 3443.35,556.609 3501,632.5C 3501.5,602.168 3501.67,571.835 3501.5,541.5C 3545.83,541.5 3590.17,541.5 3634.5,541.5C 3634.5,742.5 3634.5,943.5 3634.5,1144.5C 3590.17,1144.5 3545.83,1144.5 3501.5,1144.5C 3501.67,1114.16 3501.5,1083.83 3501,1053.5C 3442.43,1130.39 3364.6,1165.23 3267.5,1158C 3185.42,1151.88 3118.25,1117.38 3066,1054.5C 3022.32,1000.41 2998.65,938.413 2995,868.5C 2989.66,800.533 3002.99,736.533 3035,676.5C 3087.6,586.263 3166.1,536.597 3270.5,527.5 Z M 3309.5,655.5 C 3393.38,655.297 3452.88,692.964 3488,768.5C 3504.84,815.144 3505.84,862.144 3491,909.5C 3467.5,971.334 3423.67,1010.17 3359.5,1026C 3310.2,1036.01 3263.54,1029.01 3219.5,1005C 3160.93,967.226 3131.27,913.226 3130.5,843C 3132.37,763.526 3168.71,706.193 3239.5,671C 3262.05,661.692 3285.38,656.525 3309.5,655.5 Z"/></g>
<g><path style="opacity:0.994" fill="#fdfdfd" d="M 6697.5,527.5 C 6763.24,523.479 6825.24,536.646 6883.5,567C 6972,617.437 7023.67,693.271 7038.5,794.5C 6992.5,794.833 6946.5,794.5 6900.5,793.5C 6879.83,724.999 6835.17,680.832 6766.5,661C 6680.58,643.914 6612.41,670.748 6562,741.5C 6537.3,783.698 6528.96,829.032 6537,877.5C 6549.6,941.099 6585.1,986.932 6643.5,1015C 6695.65,1035.93 6747.65,1035.6 6799.5,1014C 6850.88,988.782 6884.54,948.616 6900.5,893.5C 6946.5,892.5 6992.5,892.167 7038.5,892.5C 7022.05,1000.08 6965.38,1078.24 6868.5,1127C 6805.97,1155.03 6740.63,1164.7 6672.5,1156C 6578.46,1143.42 6504.29,1098.59 6450,1021.5C 6414.55,967.47 6397.05,907.97 6397.5,843C 6399.7,720.205 6453.37,627.872 6558.5,566C 6602.14,543.058 6648.47,530.225 6697.5,527.5 Z"/></g>
<g><path style="opacity:0.993" fill="#fdfdfd" d="M 7859.5,527.5 C 7930.69,522.834 7997.03,538.334 8058.5,574C 8155.34,637.468 8204.34,727.635 8205.5,844.5C 8205.1,861.259 8203.76,877.925 8201.5,894.5C 8035.5,894.5 7869.5,894.5 7703.5,894.5C 7719.28,963.235 7760.61,1008.74 7827.5,1031C 7887.01,1046.02 7943.34,1038.35 7996.5,1008C 8018.31,993.858 8035.64,975.525 8048.5,953C 8096.5,952.5 8144.5,952.333 8192.5,952.5C 8173.46,1007.74 8140.79,1053.24 8094.5,1089C 8020.32,1144.05 7936.99,1166.72 7844.5,1157C 7737.09,1144.74 7655.59,1092.58 7600,1000.5C 7564.43,933.167 7552.76,861.833 7565,786.5C 7581.54,694.671 7629.04,623.838 7707.5,574C 7754.38,545.87 7805.05,530.37 7859.5,527.5 Z M 7869.5,647.5 C 7937.39,644.704 7991.89,670.037 8033,723.5C 8045.96,742.093 8055.13,762.427 8060.5,784.5C 7941.83,784.833 7823.16,784.5 7704.5,783.5C 7730.07,702.251 7785.07,656.918 7869.5,647.5 Z"/></g>
<g><path style="opacity:0.993" fill="#fdfdfd" d="M 8574.5,532.5 C 8574.5,577.833 8574.5,623.167 8574.5,668.5C 8536.41,667.881 8500.75,676.714 8467.5,695C 8419.06,727.675 8393.23,773.508 8390,832.5C 8389.5,936.499 8389.33,1040.5 8389.5,1144.5C 8345.17,1144.5 8300.83,1144.5 8256.5,1144.5C 8256.5,943.5 8256.5,742.5 8256.5,541.5C 8300.83,541.5 8345.17,541.5 8389.5,541.5C 8389.33,573.502 8389.5,605.502 8390,637.5C 8416.25,596.92 8451.41,566.753 8495.5,547C 8520.87,536.959 8547.21,532.125 8574.5,532.5 Z"/></g>
<g><path style="opacity:0.994" fill="#fdfdfd" d="M 3660.5,541.5 C 3711.41,541.169 3762.24,541.503 3813,542.5C 3871.15,687.947 3929.48,833.28 3988,978.5C 4046.11,833.279 4103.94,687.946 4161.5,542.5C 4211.17,541.167 4260.83,541.167 4310.5,542.5C 4193.96,817.74 4077.3,1092.91 3960.5,1368C 3912.5,1368.83 3864.5,1368.67 3816.5,1367.5C 3849.22,1291.66 3881.56,1215.66 3913.5,1139.5C 3829.15,940.14 3744.82,740.806 3660.5,541.5 Z"/></g>
<g><path style="opacity:0.994" fill="#fdfdfd" d="M 5158.5,541.5 C 5208.83,541.5 5259.17,541.5 5309.5,541.5C 5357.02,686.908 5404.86,832.242 5453,977.5C 5503.2,832.575 5553.2,687.575 5603,542.5C 5648.76,541.503 5694.59,541.17 5740.5,541.5C 5789.69,686.577 5839.19,831.577 5889,976.5C 5937.73,831.818 5985.56,686.818 6032.5,541.5C 6081.84,541.167 6131.17,541.5 6180.5,542.5C 6105.97,742.756 6031.64,943.089 5957.5,1143.5C 5911.5,1144.83 5865.5,1144.83 5819.5,1143.5C 5769.04,995.611 5718.87,847.611 5669,699.5C 5618.14,847.576 5567.97,995.909 5518.5,1144.5C 5472.26,1144.83 5426.09,1144.5 5380,1143.5C 5305.87,942.921 5232.04,742.254 5158.5,541.5 Z"/></g>
<g><path style="opacity:0.998" fill="#fdfdfd" d="M 6208.5,541.5 C 6253.17,541.5 6297.83,541.5 6342.5,541.5C 6342.5,742.5 6342.5,943.5 6342.5,1144.5C 6297.83,1144.5 6253.17,1144.5 6208.5,1144.5C 6208.5,943.5 6208.5,742.5 6208.5,541.5 Z"/></g>
<g><path style="opacity:0.995" fill="#fdfdfd" d="M 955.5,789.5 C 959.043,789.872 961.21,791.872 962,795.5C 988.697,901.11 1042.53,989.943 1123.5,1062C 1193.28,1121.18 1273.95,1156.18 1365.5,1167C 1378.82,1167.97 1392.15,1168.64 1405.5,1169C 1408.33,1169.83 1410.17,1171.67 1411,1174.5C 1411.92,1180.8 1412.42,1187.13 1412.5,1193.5C 1411.56,1238.49 1411.23,1283.49 1411.5,1328.5C 1338.39,1330.2 1267.39,1318.7 1198.5,1294C 1070.21,1249.82 965.048,1173.98 883,1066.5C 859.219,1033.67 838.219,999.007 820,962.5C 819.333,959.5 819.333,956.5 820,953.5C 854.479,911.866 888.479,869.866 922,827.5C 932.631,814.368 943.798,801.702 955.5,789.5 Z"/></g>
<g><path style="opacity:0.996" fill="#2df030" d="M 1788.5,1426.5 C 1785.83,1426.5 1783.17,1426.5 1780.5,1426.5C 1768.7,1424.5 1759.87,1418.17 1754,1407.5C 1690.07,1298.57 1625.73,1189.91 1561,1081.5C 1550.87,1062.58 1554.37,1046.75 1571.5,1034C 1653.5,985.667 1735.5,937.333 1817.5,889C 1834.45,884.094 1847.95,888.928 1858,903.5C 1922.75,1013.33 1987.75,1123 2053,1232.5C 2061.11,1248.46 2058.95,1262.96 2046.5,1276C 2025.5,1288.5 2004.5,1301 1983.5,1313.5C 1965.08,1283 1946.91,1252.33 1929,1221.5C 1917.24,1203.71 1901.07,1197.88 1880.5,1204C 1856.08,1217.62 1832.25,1232.12 1809,1247.5C 1796.81,1262.56 1795.47,1278.56 1805,1295.5C 1823.17,1325.83 1841.33,1356.17 1859.5,1386.5C 1840.5,1398 1821.5,1409.5 1802.5,1421C 1797.98,1423.55 1793.32,1425.39 1788.5,1426.5 Z M 1879.5,1263.5 C 1901.27,1263.43 1910.77,1274.09 1908,1295.5C 1902.56,1308.64 1892.72,1314.14 1878.5,1312C 1867.32,1308.18 1860.99,1300.34 1859.5,1288.5C 1861.14,1275.89 1867.8,1267.56 1879.5,1263.5 Z"/></g>
<g><path style="opacity:0.857" fill="#06f65a" d="M 1943.5,992.5 C 1944.55,992.351 1945.55,992.517 1946.5,993C 1987.5,1028.67 2028.5,1064.33 2069.5,1100C 2085.03,1114.49 2088.86,1131.65 2081,1151.5C 2073.44,1162.56 2064.94,1172.89 2055.5,1182.5C 2017.77,1120.92 1980.61,1058.92 1944,996.5C 1943.51,995.207 1943.34,993.873 1943.5,992.5 Z"/></g>
<g><path style="opacity:1" fill="#2df131" d="M 1949.5,999.5 C 1988.33,1033.5 2027.33,1067.33 2066.5,1101C 2084.97,1117.65 2087.47,1136.48 2074,1157.5C 2067.65,1164.35 2061.48,1171.35 2055.5,1178.5C 2019.89,1118.94 1984.56,1059.28 1949.5,999.5 Z"/></g>
<g><path style="opacity:0.985" fill="#2df030" d="M 1889.5,1220.5 C 1897.37,1219.18 1904.2,1221.18 1910,1226.5C 1927.67,1256.17 1945.33,1285.83 1963,1315.5C 1970.95,1327.08 1969.78,1337.58 1959.5,1347C 1941.5,1357.67 1923.5,1368.33 1905.5,1379C 1894.65,1386.33 1884.48,1385.5 1875,1376.5C 1857.59,1346.67 1839.92,1317 1822,1287.5C 1815.22,1276.66 1816.38,1266.82 1825.5,1258C 1846.76,1245.21 1868.1,1232.71 1889.5,1220.5 Z M 1879.5,1263.5 C 1867.8,1267.56 1861.14,1275.89 1859.5,1288.5C 1860.99,1300.34 1867.32,1308.18 1878.5,1312C 1892.72,1314.14 1902.56,1308.64 1908,1295.5C 1910.77,1274.09 1901.27,1263.43 1879.5,1263.5 Z"/></g>
</svg>
