<svg width="1512" height="982" viewBox="0 0 1512 982" fill="none" xmlns="http://www.w3.org/2000/svg">
<g clip-path="url(#clip0_699_51)">
<path d="M0 0H1512V982H0V0Z" fill="#EEEEEE"/>
<path d="M1199.19 801.436C1281.25 420.758 1038.5 681.776 932.088 516.434C846.958 384.161 1067.48 364.07 1188.39 370.558L1183.01 359.831" stroke="#8A5959" stroke-opacity="0.1" stroke-width="3"/>
<path d="M1199.19 801.436C1281.25 420.758 1038.5 681.776 932.088 516.434C846.958 384.161 1067.48 364.07 1188.39 370.558L1183.01 359.831" stroke="#CFCEFF" stroke-opacity="0.1" stroke-width="3"/>
<path d="M1160.76 820.712C1242.81 440.034 1000.06 701.052 893.65 535.711C808.521 403.438 1029.05 383.346 1149.95 389.835L1144.57 379.108" stroke="#8A5959" stroke-opacity="0.1" stroke-width="3"/>
<path d="M1160.76 820.712C1242.81 440.034 1000.06 701.052 893.65 535.711C808.521 403.438 1029.05 383.346 1149.95 389.835L1144.57 379.108" stroke="#CFCEFF" stroke-opacity="0.1" stroke-width="3"/>
<path d="M1122.32 839.988C1204.37 459.311 961.625 720.328 855.213 554.987C770.084 422.714 990.61 402.623 1111.51 409.111L1106.14 398.384" stroke="#8A5959" stroke-opacity="0.1" stroke-width="3"/>
<path d="M1122.32 839.988C1204.37 459.311 961.625 720.328 855.213 554.987C770.084 422.714 990.61 402.623 1111.51 409.111L1106.14 398.384" stroke="#CFCEFF" stroke-opacity="0.1" stroke-width="3"/>
<path d="M1083.88 859.265C1165.94 478.587 923.188 739.605 816.776 574.264C731.646 441.991 952.173 421.899 1073.08 428.387L1067.7 417.661" stroke="#8A5959" stroke-opacity="0.1" stroke-width="3"/>
<path d="M1083.88 859.265C1165.94 478.587 923.188 739.605 816.776 574.264C731.646 441.991 952.173 421.899 1073.08 428.387L1067.7 417.661" stroke="#CFCEFF" stroke-opacity="0.1" stroke-width="3"/>
<path d="M1045.44 878.541C1127.5 497.864 884.751 758.881 778.339 593.54C693.209 461.267 913.736 441.175 1034.64 447.664L1029.26 436.937" stroke="#8A5959" stroke-opacity="0.1" stroke-width="3"/>
<path d="M1045.44 878.541C1127.5 497.864 884.751 758.881 778.339 593.54C693.209 461.267 913.736 441.175 1034.64 447.664L1029.26 436.937" stroke="#CFCEFF" stroke-opacity="0.1" stroke-width="3"/>
<path d="M1007.01 897.818C1089.06 517.14 846.314 778.157 739.902 612.816C654.772 480.543 875.299 460.452 996.203 466.94L990.824 456.213" stroke="#8A5959" stroke-opacity="0.1" stroke-width="3"/>
<path d="M1007.01 897.818C1089.06 517.14 846.314 778.157 739.902 612.816C654.772 480.543 875.299 460.452 996.203 466.94L990.824 456.213" stroke="#CFCEFF" stroke-opacity="0.1" stroke-width="3"/>
<path d="M968.57 917.094C1050.62 536.416 807.876 797.434 701.464 632.093C616.335 499.82 836.862 479.728 957.766 486.216L952.387 475.49" stroke="#8A5959" stroke-opacity="0.1" stroke-width="3"/>
<path d="M968.57 917.094C1050.62 536.416 807.876 797.434 701.464 632.093C616.335 499.82 836.862 479.728 957.766 486.216L952.387 475.49" stroke="#CFCEFF" stroke-opacity="0.1" stroke-width="3"/>
<path d="M930.133 936.37C1012.19 555.693 769.439 816.71 663.027 651.369C577.897 519.096 798.424 499.004 919.329 505.493L913.949 494.766" stroke="#8A5959" stroke-opacity="0.1" stroke-width="3"/>
<path d="M930.133 936.37C1012.19 555.693 769.439 816.71 663.027 651.369C577.897 519.096 798.424 499.004 919.329 505.493L913.949 494.766" stroke="#CFCEFF" stroke-opacity="0.1" stroke-width="3"/>
<path d="M891.696 955.647C973.749 574.969 731.002 835.987 624.59 670.645C539.46 538.372 759.987 518.281 880.892 524.769L875.512 514.042" stroke="#8A5959" stroke-opacity="0.1" stroke-width="3"/>
<path d="M891.696 955.647C973.749 574.969 731.002 835.987 624.59 670.645C539.46 538.372 759.987 518.281 880.892 524.769L875.512 514.042" stroke="#CFCEFF" stroke-opacity="0.1" stroke-width="3"/>
<path d="M853.258 974.923C935.312 594.245 692.565 855.263 586.153 689.922C501.023 557.649 721.55 537.557 842.454 544.045L837.075 533.319" stroke="#8A5959" stroke-opacity="0.1" stroke-width="3"/>
<path d="M853.258 974.923C935.312 594.245 692.565 855.263 586.153 689.922C501.023 557.649 721.55 537.557 842.454 544.045L837.075 533.319" stroke="#CFCEFF" stroke-opacity="0.1" stroke-width="3"/>
<path d="M814.821 994.199C896.875 613.522 654.128 874.539 547.715 709.198C462.586 576.925 683.113 556.833 804.017 563.322L798.638 552.595" stroke="#8A5959" stroke-opacity="0.1" stroke-width="3"/>
<path d="M814.821 994.199C896.875 613.522 654.128 874.539 547.715 709.198C462.586 576.925 683.113 556.833 804.017 563.322L798.638 552.595" stroke="#CFCEFF" stroke-opacity="0.1" stroke-width="3"/>
<path d="M713.17 1064.89C913.028 730.664 599.366 899.994 551.631 709.252C514.674 561.573 715.148 605.266 830.014 648.968C835.013 650.87 840.271 646.737 839.534 641.439V641.439" stroke="#8A5959" stroke-opacity="0.1" stroke-width="3"/>
<path d="M713.17 1064.89C913.028 730.664 599.366 899.994 551.631 709.252C514.674 561.573 715.148 605.266 830.014 648.968C835.013 650.87 840.271 646.737 839.534 641.439V641.439" stroke="#CFCEFF" stroke-opacity="0.1" stroke-width="3"/>
<path d="M670.58 1070.81C870.438 736.589 556.776 905.918 509.041 715.176C472.084 567.498 672.558 611.19 787.424 654.892C792.423 656.794 797.681 652.662 796.944 647.363V647.363" stroke="#8A5959" stroke-opacity="0.1" stroke-width="3"/>
<path d="M670.58 1070.81C870.438 736.589 556.776 905.918 509.041 715.176C472.084 567.498 672.558 611.19 787.424 654.892C792.423 656.794 797.681 652.662 796.944 647.363V647.363" stroke="#CFCEFF" stroke-opacity="0.1" stroke-width="3"/>
<path d="M627.99 1076.74C827.848 742.513 514.186 911.843 466.452 721.1C429.494 573.422 629.969 617.114 744.834 660.816C749.834 662.719 755.091 658.586 754.354 653.288V653.288" stroke="#8A5959" stroke-opacity="0.1" stroke-width="3"/>
<path d="M627.99 1076.74C827.848 742.513 514.186 911.843 466.452 721.1C429.494 573.422 629.969 617.114 744.834 660.816C749.834 662.719 755.091 658.586 754.354 653.288V653.288" stroke="#CFCEFF" stroke-opacity="0.1" stroke-width="3"/>
<path d="M585.4 1082.66C785.258 748.437 471.596 917.767 423.862 727.025C386.904 579.346 587.379 623.039 702.244 666.741C707.244 668.643 712.501 664.51 711.764 659.212V659.212" stroke="#8A5959" stroke-opacity="0.1" stroke-width="3"/>
<path d="M585.4 1082.66C785.258 748.437 471.596 917.767 423.862 727.025C386.904 579.346 587.379 623.039 702.244 666.741C707.244 668.643 712.501 664.51 711.764 659.212V659.212" stroke="#CFCEFF" stroke-opacity="0.1" stroke-width="3"/>
<path d="M458.818 1153.29C658.676 819.068 345.014 988.398 297.28 797.655C260.322 649.977 460.797 693.669 575.662 737.372C580.662 739.274 585.919 735.141 585.182 729.843V729.843" stroke="#8A5959" stroke-opacity="0.1" stroke-width="3"/>
<path d="M458.818 1153.29C658.676 819.068 345.014 988.398 297.28 797.655C260.322 649.977 460.797 693.669 575.662 737.372C580.662 739.274 585.919 735.141 585.182 729.843V729.843" stroke="#CFCEFF" stroke-opacity="0.1" stroke-width="3"/>
<path d="M500.22 1094.51C700.078 760.286 386.416 929.616 338.682 738.874C301.724 591.195 502.199 634.888 617.064 678.59C622.064 680.492 627.321 676.359 626.584 671.061V671.061" stroke="#8A5959" stroke-opacity="0.1" stroke-width="3"/>
<path d="M500.22 1094.51C700.078 760.286 386.416 929.616 338.682 738.874C301.724 591.195 502.199 634.888 617.064 678.59C622.064 680.492 627.321 676.359 626.584 671.061V671.061" stroke="#CFCEFF" stroke-opacity="0.1" stroke-width="3"/>
<path d="M457.63 1100.43C657.488 766.211 343.827 935.54 296.092 744.798C259.134 597.12 459.609 640.812 574.474 684.514C579.474 686.416 584.732 682.284 583.995 676.986V676.986" stroke="#8A5959" stroke-opacity="0.1" stroke-width="3"/>
<path d="M457.63 1100.43C657.488 766.211 343.827 935.54 296.092 744.798C259.134 597.12 459.609 640.812 574.474 684.514C579.474 686.416 584.732 682.284 583.995 676.986V676.986" stroke="#CFCEFF" stroke-opacity="0.1" stroke-width="3"/>
<path d="M456.692 148.425C261.518 626.626 630.754 352.977 725.302 601.99C800.941 801.201 517.723 763.561 366.659 719.84L370.869 735.551" stroke="white" stroke-opacity="0.29" stroke-width="3"/>
<path d="M456.692 148.425C261.518 626.626 630.754 352.977 725.302 601.99C800.941 801.201 517.723 763.561 366.659 719.84L370.869 735.551" stroke="#8A5959" stroke-opacity="0.1" stroke-width="3"/>
<path d="M456.692 148.425C261.518 626.626 630.754 352.977 725.302 601.99C800.941 801.201 517.723 763.561 366.659 719.84L370.869 735.551" stroke="#8A5959" stroke-opacity="0.1" stroke-width="3"/>
<path d="M456.692 148.425C261.518 626.626 630.754 352.977 725.302 601.99C800.941 801.201 517.723 763.561 366.659 719.84L370.869 735.551" stroke="white" stroke-width="3"/>
<path d="M509.851 134.18C314.678 612.381 683.914 338.733 778.462 587.746C854.101 786.956 570.883 749.316 419.819 705.595L424.029 721.307" stroke="white" stroke-opacity="0.29" stroke-width="3"/>
<path d="M509.851 134.18C314.678 612.381 683.914 338.733 778.462 587.746C854.101 786.956 570.883 749.316 419.819 705.595L424.029 721.307" stroke="#8A5959" stroke-opacity="0.1" stroke-width="3"/>
<path d="M509.851 134.18C314.678 612.381 683.914 338.733 778.462 587.746C854.101 786.956 570.883 749.316 419.819 705.595L424.029 721.307" stroke="#8A5959" stroke-opacity="0.1" stroke-width="3"/>
<path d="M509.851 134.18C314.678 612.381 683.914 338.733 778.462 587.746C854.101 786.956 570.883 749.316 419.819 705.595L424.029 721.307" stroke="white" stroke-width="3"/>
<path d="M563.011 119.936C367.838 598.138 737.073 324.489 831.622 573.502C907.26 772.712 624.042 735.073 472.978 691.351L477.188 707.063" stroke="white" stroke-opacity="0.29" stroke-width="3"/>
<path d="M563.011 119.936C367.838 598.138 737.073 324.489 831.622 573.502C907.26 772.712 624.042 735.073 472.978 691.351L477.188 707.063" stroke="#8A5959" stroke-opacity="0.1" stroke-width="3"/>
<path d="M563.011 119.936C367.838 598.138 737.073 324.489 831.622 573.502C907.26 772.712 624.042 735.073 472.978 691.351L477.188 707.063" stroke="#8A5959" stroke-opacity="0.1" stroke-width="3"/>
<path d="M563.011 119.936C367.838 598.138 737.073 324.489 831.622 573.502C907.26 772.712 624.042 735.073 472.978 691.351L477.188 707.063" stroke="white" stroke-width="3"/>
<path d="M616.17 105.692C420.997 583.893 790.233 310.245 884.781 559.258C960.42 758.468 677.202 720.828 526.138 677.107L530.348 692.819" stroke="white" stroke-opacity="0.29" stroke-width="3"/>
<path d="M616.17 105.692C420.997 583.893 790.233 310.245 884.781 559.258C960.42 758.468 677.202 720.828 526.138 677.107L530.348 692.819" stroke="#8A5959" stroke-opacity="0.1" stroke-width="3"/>
<path d="M616.17 105.692C420.997 583.893 790.233 310.245 884.781 559.258C960.42 758.468 677.202 720.828 526.138 677.107L530.348 692.819" stroke="#8A5959" stroke-opacity="0.1" stroke-width="3"/>
<path d="M616.17 105.692C420.997 583.893 790.233 310.245 884.781 559.258C960.42 758.468 677.202 720.828 526.138 677.107L530.348 692.819" stroke="white" stroke-width="3"/>
<path d="M669.33 91.4482C474.157 569.649 843.392 296.001 937.941 545.014C1013.58 744.224 730.361 706.584 579.297 662.863L583.507 678.575" stroke="white" stroke-opacity="0.29" stroke-width="3"/>
<path d="M669.33 91.4482C474.157 569.649 843.392 296.001 937.941 545.014C1013.58 744.224 730.361 706.584 579.297 662.863L583.507 678.575" stroke="#8A5959" stroke-opacity="0.1" stroke-width="3"/>
<path d="M669.33 91.4482C474.157 569.649 843.392 296.001 937.941 545.014C1013.58 744.224 730.361 706.584 579.297 662.863L583.507 678.575" stroke="#8A5959" stroke-opacity="0.1" stroke-width="3"/>
<path d="M669.33 91.4482C474.157 569.649 843.392 296.001 937.941 545.014C1013.58 744.224 730.361 706.584 579.297 662.863L583.507 678.575" stroke="white" stroke-width="3"/>
<path d="M722.49 77.2045C527.316 555.406 896.552 281.757 991.1 530.77C1066.74 729.98 783.521 692.341 632.457 648.619L636.667 664.331" stroke="white" stroke-opacity="0.29" stroke-width="3"/>
<path d="M722.49 77.2045C527.316 555.406 896.552 281.757 991.1 530.77C1066.74 729.98 783.521 692.341 632.457 648.619L636.667 664.331" stroke="#8A5959" stroke-opacity="0.1" stroke-width="3"/>
<path d="M722.49 77.2045C527.316 555.406 896.552 281.757 991.1 530.77C1066.74 729.98 783.521 692.341 632.457 648.619L636.667 664.331" stroke="#8A5959" stroke-opacity="0.1" stroke-width="3"/>
<path d="M722.49 77.2045C527.316 555.406 896.552 281.757 991.1 530.77C1066.74 729.98 783.521 692.341 632.457 648.619L636.667 664.331" stroke="white" stroke-width="3"/>
<path d="M775.649 62.9599C580.476 541.161 949.711 267.513 1044.26 516.525C1119.9 715.736 836.68 678.096 685.617 634.375L689.826 650.087" stroke="white" stroke-opacity="0.29" stroke-width="3"/>
<path d="M775.649 62.9599C580.476 541.161 949.711 267.513 1044.26 516.525C1119.9 715.736 836.68 678.096 685.617 634.375L689.826 650.087" stroke="#8A5959" stroke-opacity="0.1" stroke-width="3"/>
<path d="M775.649 62.9599C580.476 541.161 949.711 267.513 1044.26 516.525C1119.9 715.736 836.68 678.096 685.617 634.375L689.826 650.087" stroke="#8A5959" stroke-opacity="0.1" stroke-width="3"/>
<path d="M775.649 62.9599C580.476 541.161 949.711 267.513 1044.26 516.525C1119.9 715.736 836.68 678.096 685.617 634.375L689.826 650.087" stroke="white" stroke-width="3"/>
<path d="M828.809 48.7158C633.635 526.917 1002.87 253.268 1097.42 502.281C1173.06 701.492 889.84 663.852 738.776 620.131L742.986 635.842" stroke="white" stroke-opacity="0.29" stroke-width="3"/>
<path d="M828.809 48.7158C633.635 526.917 1002.87 253.268 1097.42 502.281C1173.06 701.492 889.84 663.852 738.776 620.131L742.986 635.842" stroke="#8A5959" stroke-opacity="0.1" stroke-width="3"/>
<path d="M828.809 48.7158C633.635 526.917 1002.87 253.268 1097.42 502.281C1173.06 701.492 889.84 663.852 738.776 620.131L742.986 635.842" stroke="#8A5959" stroke-opacity="0.1" stroke-width="3"/>
<path d="M828.809 48.7158C633.635 526.917 1002.87 253.268 1097.42 502.281C1173.06 701.492 889.84 663.852 738.776 620.131L742.986 635.842" stroke="white" stroke-width="3"/>
<path d="M881.968 34.4721C686.795 512.673 1056.03 239.025 1150.58 488.038C1226.22 687.248 943 649.608 791.936 605.887L796.146 621.599" stroke="white" stroke-opacity="0.29" stroke-width="3"/>
<path d="M881.968 34.4721C686.795 512.673 1056.03 239.025 1150.58 488.038C1226.22 687.248 943 649.608 791.936 605.887L796.146 621.599" stroke="#8A5959" stroke-opacity="0.1" stroke-width="3"/>
<path d="M881.968 34.4721C686.795 512.673 1056.03 239.025 1150.58 488.038C1226.22 687.248 943 649.608 791.936 605.887L796.146 621.599" stroke="#8A5959" stroke-opacity="0.1" stroke-width="3"/>
<path d="M881.968 34.4721C686.795 512.673 1056.03 239.025 1150.58 488.038C1226.22 687.248 943 649.608 791.936 605.887L796.146 621.599" stroke="white" stroke-width="3"/>
<path d="M935.128 20.228C739.954 498.429 1109.19 224.781 1203.74 473.793C1279.38 673.004 996.159 635.364 845.095 591.643L849.305 607.355" stroke="white" stroke-opacity="0.29" stroke-width="3"/>
<path d="M935.128 20.228C739.954 498.429 1109.19 224.781 1203.74 473.793C1279.38 673.004 996.159 635.364 845.095 591.643L849.305 607.355" stroke="#8A5959" stroke-opacity="0.1" stroke-width="3"/>
<path d="M935.128 20.228C739.954 498.429 1109.19 224.781 1203.74 473.793C1279.38 673.004 996.159 635.364 845.095 591.643L849.305 607.355" stroke="#8A5959" stroke-opacity="0.1" stroke-width="3"/>
<path d="M935.128 20.228C739.954 498.429 1109.19 224.781 1203.74 473.793C1279.38 673.004 996.159 635.364 845.095 591.643L849.305 607.355" stroke="white" stroke-width="3"/>
<path d="M988.287 5.98385C793.114 484.185 1162.35 210.536 1256.9 459.549C1332.54 658.76 1049.32 621.12 898.255 577.399L902.465 593.11" stroke="white" stroke-opacity="0.29" stroke-width="3"/>
<path d="M988.287 5.98385C793.114 484.185 1162.35 210.536 1256.9 459.549C1332.54 658.76 1049.32 621.12 898.255 577.399L902.465 593.11" stroke="#8A5959" stroke-opacity="0.1" stroke-width="3"/>
<path d="M988.287 5.98385C793.114 484.185 1162.35 210.536 1256.9 459.549C1332.54 658.76 1049.32 621.12 898.255 577.399L902.465 593.11" stroke="#8A5959" stroke-opacity="0.1" stroke-width="3"/>
<path d="M988.287 5.98385C793.114 484.185 1162.35 210.536 1256.9 459.549C1332.54 658.76 1049.32 621.12 898.255 577.399L902.465 593.11" stroke="white" stroke-width="3"/>
<path d="M1133.62 -57.6798C800.908 324.991 1237.6 192.892 1251.97 458.34C1263.08 663.628 1021.07 548.186 886.495 457.187C880.503 453.135 872.556 456.923 872.215 464.043V464.043" stroke="white" stroke-opacity="0.29" stroke-width="3"/>
<path d="M1133.62 -57.6798C800.908 324.991 1237.6 192.892 1251.97 458.34C1263.08 663.628 1021.07 548.186 886.495 457.187C880.503 453.135 872.556 456.923 872.215 464.043V464.043" stroke="#8A5959" stroke-opacity="0.1" stroke-width="3"/>
<path d="M1133.62 -57.6798C800.908 324.991 1237.6 192.892 1251.97 458.34C1263.08 663.628 1021.07 548.186 886.495 457.187C880.503 453.135 872.556 456.923 872.215 464.043V464.043" stroke="#8A5959" stroke-opacity="0.1" stroke-width="3"/>
<path d="M1133.62 -57.6798C800.908 324.991 1237.6 192.892 1251.97 458.34C1263.08 663.628 1021.07 548.186 886.495 457.187C880.503 453.135 872.556 456.923 872.215 464.043V464.043" stroke="white" stroke-width="3"/>
<path d="M1188.8 -53.1065C856.097 329.564 1292.79 197.465 1307.16 462.913C1318.27 668.202 1076.26 552.759 941.684 461.76C935.692 457.708 927.745 461.496 927.404 468.616V468.616" stroke="white" stroke-opacity="0.29" stroke-width="3"/>
<path d="M1188.8 -53.1065C856.097 329.564 1292.79 197.465 1307.16 462.913C1318.27 668.202 1076.26 552.759 941.684 461.76C935.692 457.708 927.745 461.496 927.404 468.616V468.616" stroke="#8A5959" stroke-opacity="0.1" stroke-width="3"/>
<path d="M1188.8 -53.1065C856.097 329.564 1292.79 197.465 1307.16 462.913C1318.27 668.202 1076.26 552.759 941.684 461.76C935.692 457.708 927.745 461.496 927.404 468.616V468.616" stroke="#8A5959" stroke-opacity="0.1" stroke-width="3"/>
<path d="M1188.8 -53.1065C856.097 329.564 1292.79 197.465 1307.16 462.913C1318.27 668.202 1076.26 552.759 941.684 461.76C935.692 457.708 927.745 461.496 927.404 468.616V468.616" stroke="white" stroke-width="3"/>
<path d="M1243.99 -48.5333C911.286 334.137 1347.98 202.038 1362.35 467.486C1373.46 672.775 1131.45 557.332 996.874 466.333C990.881 462.281 982.934 466.07 982.593 473.189V473.189" stroke="white" stroke-opacity="0.29" stroke-width="3"/>
<path d="M1243.99 -48.5333C911.286 334.137 1347.98 202.038 1362.35 467.486C1373.46 672.775 1131.45 557.332 996.874 466.333C990.881 462.281 982.934 466.07 982.593 473.189V473.189" stroke="#8A5959" stroke-opacity="0.1" stroke-width="3"/>
<path d="M1243.99 -48.5333C911.286 334.137 1347.98 202.038 1362.35 467.486C1373.46 672.775 1131.45 557.332 996.874 466.333C990.881 462.281 982.934 466.07 982.593 473.189V473.189" stroke="#8A5959" stroke-opacity="0.1" stroke-width="3"/>
<path d="M1243.99 -48.5333C911.286 334.137 1347.98 202.038 1362.35 467.486C1373.46 672.775 1131.45 557.332 996.874 466.333C990.881 462.281 982.934 466.07 982.593 473.189V473.189" stroke="white" stroke-width="3"/>
<path d="M1299.18 -43.9596C966.475 338.711 1403.17 206.612 1417.54 472.06C1428.64 677.348 1186.64 561.906 1052.06 470.907C1046.07 466.855 1038.12 470.643 1037.78 477.763V477.763" stroke="white" stroke-opacity="0.29" stroke-width="3"/>
<path d="M1299.18 -43.9596C966.475 338.711 1403.17 206.612 1417.54 472.06C1428.64 677.348 1186.64 561.906 1052.06 470.907C1046.07 466.855 1038.12 470.643 1037.78 477.763V477.763" stroke="#8A5959" stroke-opacity="0.1" stroke-width="3"/>
<path d="M1299.18 -43.9596C966.475 338.711 1403.17 206.612 1417.54 472.06C1428.64 677.348 1186.64 561.906 1052.06 470.907C1046.07 466.855 1038.12 470.643 1037.78 477.763V477.763" stroke="#8A5959" stroke-opacity="0.1" stroke-width="3"/>
<path d="M1299.18 -43.9596C966.475 338.711 1403.17 206.612 1417.54 472.06C1428.64 677.348 1186.64 561.906 1052.06 470.907C1046.07 466.855 1038.12 470.643 1037.78 477.763V477.763" stroke="white" stroke-width="3"/>
<path d="M1475.97 -100.297C1143.26 282.373 1579.96 150.275 1594.32 415.723C1605.43 621.011 1363.43 505.568 1228.85 414.57C1222.86 410.518 1214.91 414.306 1214.57 421.425V421.425" stroke="white" stroke-opacity="0.29" stroke-width="3"/>
<path d="M1475.97 -100.297C1143.26 282.373 1579.96 150.275 1594.32 415.723C1605.43 621.011 1363.43 505.568 1228.85 414.57C1222.86 410.518 1214.91 414.306 1214.57 421.425V421.425" stroke="#8A5959" stroke-opacity="0.1" stroke-width="3"/>
<path d="M1475.97 -100.297C1143.26 282.373 1579.96 150.275 1594.32 415.723C1605.43 621.011 1363.43 505.568 1228.85 414.57C1222.86 410.518 1214.91 414.306 1214.57 421.425V421.425" stroke="#8A5959" stroke-opacity="0.1" stroke-width="3"/>
<path d="M1475.97 -100.297C1143.26 282.373 1579.96 150.275 1594.32 415.723C1605.43 621.011 1363.43 505.568 1228.85 414.57C1222.86 410.518 1214.91 414.306 1214.57 421.425V421.425" stroke="white" stroke-width="3"/>
<path d="M1409.56 -34.8131C1076.85 347.858 1513.55 215.759 1527.91 481.207C1539.02 686.495 1297.02 571.052 1162.44 480.054C1156.45 476.002 1148.5 479.79 1148.16 486.909V486.909" stroke="white" stroke-opacity="0.29" stroke-width="3"/>
<path d="M1409.56 -34.8131C1076.85 347.858 1513.55 215.759 1527.91 481.207C1539.02 686.495 1297.02 571.052 1162.44 480.054C1156.45 476.002 1148.5 479.79 1148.16 486.909V486.909" stroke="#8A5959" stroke-opacity="0.1" stroke-width="3"/>
<path d="M1409.56 -34.8131C1076.85 347.858 1513.55 215.759 1527.91 481.207C1539.02 686.495 1297.02 571.052 1162.44 480.054C1156.45 476.002 1148.5 479.79 1148.16 486.909V486.909" stroke="#8A5959" stroke-opacity="0.1" stroke-width="3"/>
<path d="M1409.56 -34.8131C1076.85 347.858 1513.55 215.759 1527.91 481.207C1539.02 686.495 1297.02 571.052 1162.44 480.054C1156.45 476.002 1148.5 479.79 1148.16 486.909V486.909" stroke="white" stroke-width="3"/>
<path d="M1464.75 -30.2396C1132.04 352.431 1568.74 220.332 1583.1 485.78C1594.21 691.068 1352.21 575.626 1217.63 484.627C1211.64 480.575 1203.69 484.363 1203.35 491.483V491.483" stroke="white" stroke-opacity="0.29" stroke-width="3"/>
<path d="M1464.75 -30.2396C1132.04 352.431 1568.74 220.332 1583.1 485.78C1594.21 691.068 1352.21 575.626 1217.63 484.627C1211.64 480.575 1203.69 484.363 1203.35 491.483V491.483" stroke="#8A5959" stroke-opacity="0.1" stroke-width="3"/>
<path d="M1464.75 -30.2396C1132.04 352.431 1568.74 220.332 1583.1 485.78C1594.21 691.068 1352.21 575.626 1217.63 484.627C1211.64 480.575 1203.69 484.363 1203.35 491.483V491.483" stroke="#8A5959" stroke-opacity="0.1" stroke-width="3"/>
<path d="M1464.75 -30.2396C1132.04 352.431 1568.74 220.332 1583.1 485.78C1594.21 691.068 1352.21 575.626 1217.63 484.627C1211.64 480.575 1203.69 484.363 1203.35 491.483V491.483" stroke="white" stroke-width="3"/>
<path d="M540.601 858.272C901.096 710.99 548.595 658.079 624.944 476.883C686.023 331.926 827.151 502.568 890.08 606.008L895.894 595.511" stroke="white"/>
<path d="M540.601 858.272C901.096 710.99 548.595 658.079 624.944 476.883C686.023 331.926 827.151 502.568 890.08 606.008L895.894 595.511" stroke="#A7CDCF"/>
<path d="M502.985 837.438C863.48 690.157 510.979 637.246 587.328 456.049C648.407 311.092 789.535 481.734 852.464 585.175L858.278 574.677" stroke="white"/>
<path d="M502.985 837.438C863.48 690.157 510.979 637.246 587.328 456.049C648.407 311.092 789.535 481.734 852.464 585.175L858.278 574.677" stroke="#A7CDCF"/>
<path d="M465.369 816.605C825.864 669.324 473.363 616.413 549.712 435.216C610.791 290.259 751.919 460.901 814.848 564.342L820.662 553.844" stroke="white"/>
<path d="M465.369 816.605C825.864 669.324 473.363 616.413 549.712 435.216C610.791 290.259 751.919 460.901 814.848 564.342L820.662 553.844" stroke="#A7CDCF"/>
<path d="M427.753 795.772C788.248 648.49 435.747 595.579 512.096 414.383C573.175 269.426 714.303 440.068 777.232 543.508L783.046 533.011" stroke="white"/>
<path d="M427.753 795.772C788.248 648.49 435.747 595.579 512.096 414.383C573.175 269.426 714.303 440.068 777.232 543.508L783.046 533.011" stroke="#A7CDCF"/>
<path d="M390.137 774.938C750.632 627.657 398.131 574.746 474.48 393.549C535.559 248.592 676.687 419.234 739.616 522.675L745.43 512.177" stroke="white"/>
<path d="M390.137 774.938C750.632 627.657 398.131 574.746 474.48 393.549C535.559 248.592 676.687 419.234 739.616 522.675L745.43 512.177" stroke="#A7CDCF"/>
<path d="M352.521 754.105C713.016 606.823 360.515 553.912 436.864 372.716C497.943 227.759 639.071 398.401 702 501.841L707.814 491.344" stroke="white"/>
<path d="M352.521 754.105C713.016 606.823 360.515 553.912 436.864 372.716C497.943 227.759 639.071 398.401 702 501.841L707.814 491.344" stroke="#A7CDCF"/>
<path d="M314.905 733.271C675.399 585.99 322.899 533.079 399.248 351.882C460.327 206.925 601.455 377.567 664.384 481.008L670.198 470.51" stroke="white"/>
<path d="M314.905 733.271C675.399 585.99 322.899 533.079 399.248 351.882C460.327 206.925 601.455 377.567 664.384 481.008L670.198 470.51" stroke="#A7CDCF"/>
<path d="M277.289 712.438C637.783 565.156 285.283 512.245 361.632 331.049C422.711 186.092 563.839 356.734 626.768 460.174L632.582 449.677" stroke="white"/>
<path d="M277.289 712.438C637.783 565.156 285.283 512.245 361.632 331.049C422.711 186.092 563.839 356.734 626.768 460.174L632.582 449.677" stroke="#A7CDCF"/>
<path d="M239.673 691.604C600.167 544.323 247.667 491.412 324.016 310.215C385.095 165.258 526.223 335.9 589.152 439.341L594.966 428.843" stroke="white"/>
<path d="M239.673 691.604C600.167 544.323 247.667 491.412 324.016 310.215C385.095 165.258 526.223 335.9 589.152 439.341L594.966 428.843" stroke="#A7CDCF"/>
<path d="M202.057 670.771C562.551 523.489 210.051 470.578 286.4 289.382C347.479 144.425 488.607 315.067 551.536 418.507L557.35 408.01" stroke="white"/>
<path d="M202.057 670.771C562.551 523.489 210.051 470.578 286.4 289.382C347.479 144.425 488.607 315.067 551.536 418.507L557.35 408.01" stroke="#A7CDCF"/>
<path d="M164.441 649.937C524.935 502.656 172.435 449.745 248.784 268.548C309.863 123.591 450.99 294.233 513.919 397.674L519.733 387.176" stroke="white"/>
<path d="M164.441 649.937C524.935 502.656 172.435 449.745 248.784 268.548C309.863 123.591 450.99 294.233 513.919 397.674L519.733 387.176" stroke="#A7CDCF"/>
<path d="M48.6959 605.972C437.387 582.145 120.501 418.929 250.951 271.81C351.95 157.906 429.115 348.024 457.923 467.498C459.176 472.698 465.556 474.703 469.512 471.102V471.102" stroke="white"/>
<path d="M48.6959 605.972C437.387 582.145 120.501 418.929 250.951 271.81C351.95 157.906 429.115 348.024 457.923 467.498C459.176 472.698 465.556 474.703 469.512 471.102V471.102" stroke="#A7CDCF"/>
<path d="M19.7533 574.17C408.444 550.344 91.558 387.128 222.008 240.009C323.007 126.105 400.172 316.222 428.98 435.697C430.234 440.897 436.614 442.902 440.57 439.301V439.301" stroke="white"/>
<path d="M19.7533 574.17C408.444 550.344 91.558 387.128 222.008 240.009C323.007 126.105 400.172 316.222 428.98 435.697C430.234 440.897 436.614 442.902 440.57 439.301V439.301" stroke="#A7CDCF"/>
<path d="M-9.18936 542.369C379.501 518.542 62.6154 355.326 193.066 208.207C294.064 94.3037 371.23 284.421 400.037 403.895C401.291 409.095 407.671 411.1 411.627 407.5V407.5" stroke="white"/>
<path d="M-9.18936 542.369C379.501 518.542 62.6154 355.326 193.066 208.207C294.064 94.3037 371.23 284.421 400.037 403.895C401.291 409.095 407.671 411.1 411.627 407.5V407.5" stroke="#A7CDCF"/>
<path d="M-38.132 510.568C350.559 486.741 33.6728 323.525 164.123 176.406C265.122 62.5025 342.287 252.62 371.095 372.094C372.349 377.294 378.728 379.299 382.684 375.699V375.699" stroke="white"/>
<path d="M-38.132 510.568C350.559 486.741 33.6728 323.525 164.123 176.406C265.122 62.5025 342.287 252.62 371.095 372.094C372.349 377.294 378.728 379.299 382.684 375.699V375.699" stroke="#A7CDCF"/>
<path d="M-67.0746 478.767C321.616 454.94 4.73016 291.724 135.181 144.605C236.179 30.7012 313.345 220.819 342.152 340.293C343.406 345.493 349.786 347.498 353.742 343.897V343.897" stroke="white"/>
<path d="M-67.0746 478.767C321.616 454.94 4.73016 291.724 135.181 144.605C236.179 30.7012 313.345 220.819 342.152 340.293C343.406 345.493 349.786 347.498 353.742 343.897V343.897" stroke="#A7CDCF"/>
<path d="M-96.0172 446.965C292.674 423.139 -24.2125 259.922 106.238 112.804C207.237 -1.10009 284.402 189.017 313.209 308.492C314.463 313.692 320.843 315.696 324.799 312.096V312.096" stroke="white"/>
<path d="M-96.0172 446.965C292.674 423.139 -24.2125 259.922 106.238 112.804C207.237 -1.10009 284.402 189.017 313.209 308.492C314.463 313.692 320.843 315.696 324.799 312.096V312.096" stroke="#A7CDCF"/>
<path d="M-124.96 415.164C263.731 391.337 -53.1551 228.121 77.2953 81.0024C178.294 -32.9014 255.459 157.216 284.267 276.69C285.521 281.89 291.901 283.895 295.857 280.295V280.295" stroke="white"/>
<path d="M-124.96 415.164C263.731 391.337 -53.1551 228.121 77.2953 81.0024C178.294 -32.9014 255.459 157.216 284.267 276.69C285.521 281.89 291.901 283.895 295.857 280.295V280.295" stroke="#A7CDCF"/>
</g>
<defs>
<clipPath id="clip0_699_51">
<path d="M0 0H1512V982H0V0Z" fill="white"/>
</clipPath>
</defs>
</svg>
