<svg xmlns="http://www.w3.org/2000/svg" viewBox="0 0 48 48" id="phone"><path d="M31,36H7V10H31v3h2V7a5,5,0,0,0-5-5H10A5,5,0,0,0,5,7V41a5,5,0,0,0,5,5H28a5,5,0,0,0,5-5V33H31ZM10,4H28a3,3,0,0,1,3,3V8H7V7A3,3,0,0,1,10,4ZM28,44H10a3,3,0,0,1-3-3V38H31v3A3,3,0,0,1,28,44ZM16,40h6v2H16ZM40,14H19V13H17V33h2V32H40a3,3,0,0,0,3-3V17A3,3,0,0,0,40,14Zm1,15a1,1,0,0,1-1,1H19V16H40a1,1,0,0,1,1,1ZM31,19h2v2H29v1h3a1,1,0,0,1,1,1v3a1,1,0,0,1-1,1H31v1H29V27H27V25h4V24H28a1,1,0,0,1-1-1V20a1,1,0,0,1,1-1h1V18h2Zm4,3h4v2H35ZM21,22h4v2H21Z"></path></svg>