<svg width="1240" height="342" viewBox="0 0 1240 342" fill="none" xmlns="http://www.w3.org/2000/svg">
<path d="M14.3833 96.0454C17.044 50.5482 18.3743 27.7997 33.1107 13.8998C47.8471 0 70.6345 0 116.209 0H1112.19C1157 0 1179.41 0 1194.28 13.4799C1209.14 26.9597 1211.33 49.2603 1215.69 93.8614L1240 342H0L14.3833 96.0454Z" fill="#1A1919"/>
<path d="M557.354 64.6465L807.354 314.646M614.354 64.6465L864.354 314.646M671.354 64.6465L921.354 314.646M728.354 64.6465L978.354 314.646M785.354 64.6465L1035.35 314.646M842.354 64.6465L1092.35 314.646M899.354 64.6465L1149.35 314.646M956.354 64.6465L1206.35 314.646M1027.6 103.497L587.054 151.183M1073.6 151.497L633.054 199.183M1119.6 199.497L679.054 247.183M1165.6 247.497L725.054 295.183" stroke="#3C3C3C"/>
</svg>
