<svg xmlns="http://www.w3.org/2000/svg" width="21" height="21" viewBox="0 0 21 21" fill="none">
  <path fill-rule="evenodd" clip-rule="evenodd" d="M4.66666 9.25C4.33514 9.25 4.01719 9.3817 3.78277 9.61612C3.54835 9.85054 3.41666 10.1685 3.41666 10.5V10.5083C3.41666 10.8399 3.54835 11.1578 3.78277 11.3922C4.01719 11.6266 4.33514 11.7583 4.66666 11.7583H4.67499C5.00651 11.7583 5.32445 11.6266 5.55887 11.3922C5.79329 11.1578 5.92499 10.8399 5.92499 10.5083V10.5C5.92499 10.1685 5.79329 9.85054 5.55887 9.61612C5.32445 9.3817 5.00651 9.25 4.67499 9.25H4.66666ZM10.5 9.25C10.1685 9.25 9.85053 9.3817 9.61611 9.61612C9.38169 9.85054 9.24999 10.1685 9.24999 10.5V10.5083C9.24999 10.8399 9.38169 11.1578 9.61611 11.3922C9.85053 11.6266 10.1685 11.7583 10.5 11.7583H10.5083C10.8398 11.7583 11.1578 11.6266 11.3922 11.3922C11.6266 11.1578 11.7583 10.8399 11.7583 10.5083V10.5C11.7583 10.1685 11.6266 9.85054 11.3922 9.61612C11.1578 9.3817 10.8398 9.25 10.5083 9.25H10.5ZM15.0833 10.5C15.0833 10.1685 15.215 9.85054 15.4494 9.61612C15.6839 9.3817 16.0018 9.25 16.3333 9.25H16.3417C16.6732 9.25 16.9911 9.3817 17.2255 9.61612C17.46 9.85054 17.5917 10.1685 17.5917 10.5V10.5083C17.5917 10.8399 17.46 11.1578 17.2255 11.3922C16.9911 11.6266 16.6732 11.7583 16.3417 11.7583H16.3333C16.0018 11.7583 15.6839 11.6266 15.4494 11.3922C15.215 11.1578 15.0833 10.8399 15.0833 10.5083V10.5Z" fill="#292D32" fillOpacity="0.5"/>
</svg>