<svg width="1304" height="709" viewBox="0 0 1304 709" fill="none" xmlns="http://www.w3.org/2000/svg">
<g clip-path="url(#clip0_699_51)">
<path d="M0 0H1304V709H0V0Z" fill="#EEEEEE"/>
<path d="M275.5 102.495C31.5 405.995 365.5 281.495 386.5 476.995C403.3 633.395 197.167 552.495 92 492.495V504.495" stroke="white" stroke-opacity="0.29" stroke-width="3"/>
<path d="M318.5 102.495C74.5 405.995 408.5 281.495 429.5 476.995C446.3 633.395 240.167 552.495 135 492.495V504.495" stroke="white" stroke-opacity="0.29" stroke-width="3"/>
<path d="M361.5 102.495C117.5 405.995 451.5 281.495 472.5 476.995C489.3 633.395 283.167 552.495 178 492.495V504.495" stroke="white" stroke-opacity="0.29" stroke-width="3"/>
<path d="M404.5 102.495C160.5 405.995 494.5 281.495 515.5 476.995C532.3 633.395 326.167 552.495 221 492.495V504.495" stroke="white" stroke-opacity="0.29" stroke-width="3"/>
<path d="M447.5 102.495C203.5 405.995 537.5 281.495 558.5 476.995C575.3 633.395 369.167 552.495 264 492.495V504.495" stroke="white" stroke-opacity="0.29" stroke-width="3"/>
<path d="M490.5 102.495C246.5 405.995 580.5 281.495 601.5 476.995C618.3 633.395 412.167 552.495 307 492.495V504.495" stroke="white" stroke-opacity="0.29" stroke-width="3"/>
<path d="M533.5 102.495C289.5 405.995 623.5 281.495 644.5 476.995C661.3 633.395 455.167 552.495 350 492.495V504.495" stroke="white" stroke-opacity="0.29" stroke-width="3"/>
<path d="M576.5 102.495C332.5 405.995 666.5 281.495 687.5 476.995C704.3 633.395 498.167 552.495 393 492.495V504.495" stroke="white" stroke-opacity="0.29" stroke-width="3"/>
<path d="M619.5 102.495C375.5 405.995 709.5 281.495 730.5 476.995C747.3 633.395 541.167 552.495 436 492.495V504.495" stroke="white" stroke-opacity="0.29" stroke-width="3"/>
<path d="M662.5 102.495C418.5 405.995 752.5 281.495 773.5 476.995C790.3 633.395 584.167 552.495 479 492.495V504.495" stroke="white" stroke-opacity="0.29" stroke-width="3"/>
<path d="M705.5 102.495C461.5 405.995 795.5 281.495 816.5 476.995C833.3 633.395 627.167 552.495 522 492.495V504.495" stroke="white" stroke-opacity="0.29" stroke-width="3"/>
<path d="M828.054 84.8774C499.574 294.041 855.862 283.29 813.024 475.192C779.857 623.768 620.242 494.841 537.156 404.283C533.54 400.342 526.987 401.679 525.271 406.745V406.745" stroke="white" stroke-opacity="0.29" stroke-width="3"/>
<path d="M868.78 98.6743C540.301 307.838 896.588 297.087 853.75 488.989C820.584 637.564 660.968 508.638 577.882 418.08C574.266 414.139 567.714 415.476 565.997 420.542V420.542" stroke="white" stroke-opacity="0.29" stroke-width="3"/>
<path d="M909.507 112.471C581.027 321.635 937.315 310.884 894.476 502.786C861.31 651.361 701.695 522.435 618.609 431.877C614.993 427.935 608.44 429.273 606.724 434.339V434.339" stroke="white" stroke-opacity="0.29" stroke-width="3"/>
<path d="M950.233 126.268C621.754 335.432 978.041 324.681 935.203 516.582C902.037 665.158 742.421 536.232 659.335 445.674C655.719 441.732 649.167 443.07 647.45 448.136V448.136" stroke="white" stroke-opacity="0.29" stroke-width="3"/>
<path d="M1095.05 119.877C766.567 329.041 1122.85 318.29 1080.02 510.192C1046.85 658.768 887.234 529.841 804.149 439.283C800.532 435.342 793.98 436.679 792.264 441.745V441.745" stroke="white" stroke-opacity="0.29" stroke-width="3"/>
<path d="M1031.69 153.862C703.207 363.026 1059.49 352.275 1016.66 544.176C983.49 692.752 823.874 563.825 740.788 473.268C737.172 469.326 730.62 470.663 728.903 475.73V475.73" stroke="white" stroke-opacity="0.29" stroke-width="3"/>
<path d="M1072.41 167.659C743.933 376.822 1100.22 366.072 1057.38 557.973C1024.22 706.549 864.601 577.622 781.515 487.064C777.899 483.123 771.346 484.46 769.63 489.526V489.526" stroke="white" stroke-opacity="0.29" stroke-width="3"/>
<path d="M540.601 858.272C901.096 710.99 548.595 658.079 624.944 476.883C686.023 331.926 827.151 502.568 890.08 606.008L895.894 595.511" stroke="white"/>
<path d="M540.601 858.272C901.096 710.99 548.595 658.079 624.944 476.883C686.023 331.926 827.151 502.568 890.08 606.008L895.894 595.511" stroke="white"/>
<path d="M502.985 837.438C863.48 690.157 510.979 637.246 587.328 456.049C648.407 311.092 789.535 481.734 852.464 585.175L858.278 574.677" stroke="white"/>
<path d="M502.985 837.438C863.48 690.157 510.979 637.246 587.328 456.049C648.407 311.092 789.535 481.734 852.464 585.175L858.278 574.677" stroke="white"/>
<path d="M465.369 816.605C825.864 669.324 473.363 616.413 549.712 435.216C610.791 290.259 751.919 460.901 814.848 564.342L820.662 553.844" stroke="white"/>
<path d="M465.369 816.605C825.864 669.324 473.363 616.413 549.712 435.216C610.791 290.259 751.919 460.901 814.848 564.342L820.662 553.844" stroke="white"/>
<path d="M427.753 795.772C788.248 648.49 435.747 595.579 512.096 414.383C573.175 269.426 714.303 440.068 777.232 543.508L783.046 533.011" stroke="white"/>
<path d="M427.753 795.772C788.248 648.49 435.747 595.579 512.096 414.383C573.175 269.426 714.303 440.068 777.232 543.508L783.046 533.011" stroke="white"/>
<path d="M390.137 774.938C750.632 627.657 398.131 574.746 474.48 393.549C535.559 248.592 676.687 419.234 739.616 522.675L745.43 512.177" stroke="white"/>
<path d="M390.137 774.938C750.632 627.657 398.131 574.746 474.48 393.549C535.559 248.592 676.687 419.234 739.616 522.675L745.43 512.177" stroke="white"/>
<path d="M352.521 754.105C713.016 606.823 360.515 553.912 436.864 372.716C497.943 227.759 639.071 398.401 702 501.841L707.814 491.344" stroke="white"/>
<path d="M352.521 754.105C713.016 606.823 360.515 553.912 436.864 372.716C497.943 227.759 639.071 398.401 702 501.841L707.814 491.344" stroke="white"/>
<path d="M314.905 733.271C675.399 585.99 322.899 533.079 399.248 351.882C460.327 206.925 601.455 377.567 664.384 481.008L670.198 470.51" stroke="white"/>
<path d="M314.905 733.271C675.399 585.99 322.899 533.079 399.248 351.882C460.327 206.925 601.455 377.567 664.384 481.008L670.198 470.51" stroke="white"/>
<path d="M277.289 712.438C637.783 565.156 285.283 512.245 361.632 331.049C422.711 186.092 563.839 356.734 626.768 460.174L632.582 449.677" stroke="white"/>
<path d="M277.289 712.438C637.783 565.156 285.283 512.245 361.632 331.049C422.711 186.092 563.839 356.734 626.768 460.174L632.582 449.677" stroke="white"/>
<path d="M239.673 691.604C600.167 544.323 247.667 491.412 324.016 310.215C385.095 165.258 526.223 335.9 589.152 439.341L594.966 428.843" stroke="white"/>
<path d="M239.673 691.604C600.167 544.323 247.667 491.412 324.016 310.215C385.095 165.258 526.223 335.9 589.152 439.341L594.966 428.843" stroke="white"/>
<path d="M202.057 670.771C562.551 523.489 210.051 470.578 286.4 289.382C347.479 144.425 488.607 315.067 551.536 418.507L557.35 408.01" stroke="white"/>
<path d="M202.057 670.771C562.551 523.489 210.051 470.578 286.4 289.382C347.479 144.425 488.607 315.067 551.536 418.507L557.35 408.01" stroke="white"/>
<path d="M164.441 649.937C524.935 502.656 172.435 449.745 248.784 268.548C309.863 123.591 450.991 294.233 513.92 397.674L519.734 387.176" stroke="white"/>
<path d="M164.441 649.937C524.935 502.656 172.435 449.745 248.784 268.548C309.863 123.591 450.991 294.233 513.92 397.674L519.734 387.176" stroke="white"/>
<path d="M48.6959 605.972C437.387 582.145 120.501 418.929 250.951 271.81C351.95 157.906 429.115 348.024 457.923 467.498C459.176 472.698 465.556 474.703 469.512 471.102V471.102" stroke="white"/>
<path d="M48.6959 605.972C437.387 582.145 120.501 418.929 250.951 271.81C351.95 157.906 429.115 348.024 457.923 467.498C459.176 472.698 465.556 474.703 469.512 471.102V471.102" stroke="white"/>
<path d="M19.7533 574.17C408.444 550.344 91.558 387.128 222.008 240.009C323.007 126.105 400.172 316.222 428.98 435.697C430.234 440.897 436.614 442.902 440.57 439.301V439.301" stroke="white"/>
<path d="M19.7533 574.17C408.444 550.344 91.558 387.128 222.008 240.009C323.007 126.105 400.172 316.222 428.98 435.697C430.234 440.897 436.614 442.902 440.57 439.301V439.301" stroke="white"/>
<path d="M-9.18924 542.369C379.502 518.542 62.6155 355.326 193.066 208.207C294.065 94.3037 371.23 284.421 400.037 403.895C401.291 409.095 407.671 411.1 411.627 407.5V407.5" stroke="white"/>
<path d="M-9.18924 542.369C379.502 518.542 62.6155 355.326 193.066 208.207C294.065 94.3037 371.23 284.421 400.037 403.895C401.291 409.095 407.671 411.1 411.627 407.5V407.5" stroke="white"/>
<path d="M-38.132 510.568C350.559 486.741 33.6728 323.525 164.123 176.406C265.122 62.5025 342.287 252.62 371.095 372.094C372.349 377.294 378.728 379.299 382.684 375.699V375.699" stroke="white"/>
<path d="M-38.132 510.568C350.559 486.741 33.6728 323.525 164.123 176.406C265.122 62.5025 342.287 252.62 371.095 372.094C372.349 377.294 378.728 379.299 382.684 375.699V375.699" stroke="white"/>
<path d="M-67.0746 478.767C321.616 454.94 4.73016 291.724 135.181 144.605C236.179 30.7012 313.345 220.819 342.152 340.293C343.406 345.493 349.786 347.498 353.742 343.897V343.897" stroke="white"/>
<path d="M-67.0746 478.767C321.616 454.94 4.73016 291.724 135.181 144.605C236.179 30.7012 313.345 220.819 342.152 340.293C343.406 345.493 349.786 347.498 353.742 343.897V343.897" stroke="white"/>
<path d="M-96.0172 446.965C292.674 423.139 -24.2125 259.922 106.238 112.804C207.237 -1.10009 284.402 189.017 313.209 308.492C314.463 313.692 320.843 315.696 324.799 312.096V312.096" stroke="white"/>
<path d="M-96.0172 446.965C292.674 423.139 -24.2125 259.922 106.238 112.804C207.237 -1.10009 284.402 189.017 313.209 308.492C314.463 313.692 320.843 315.696 324.799 312.096V312.096" stroke="white"/>
<path d="M-124.96 415.164C263.731 391.337 -53.155 228.121 77.2954 81.0024C178.294 -32.9014 255.459 157.216 284.267 276.69C285.521 281.89 291.901 283.895 295.857 280.295V280.295" stroke="white"/>
<path d="M-124.96 415.164C263.731 391.337 -53.155 228.121 77.2954 81.0024C178.294 -32.9014 255.459 157.216 284.267 276.69C285.521 281.89 291.901 283.895 295.857 280.295V280.295" stroke="white"/>
</g>
<defs>
<clipPath id="clip0_699_51">
<path d="M0 0H1304V709H0V0Z" fill="white"/>
</clipPath>
</defs>
</svg>
